<?xml version="1.0" encoding="utf-8"?>
<svg version="1.1" xmlns:xlink="http://www.w3.org/1999/xlink" width="148px" height="130px" xmlns="http://www.w3.org/2000/svg">
  <g transform="matrix(1 0 0 1 -20 -78 )">
    <path d="M 21 84  A 5 5 0 0 1 26 79 L 162 79  A 5 5 0 0 1 167 84 L 167 202  A 5 5 0 0 1 162 207 L 26 207  A 5 5 0 0 1 21 202 L 21 84  Z " fill-rule="nonzero" fill="#0b5187" stroke="none" fill-opacity="0.2" />
    <path d="M 20.5 84  A 5.5 5.5 0 0 1 26 78.5 L 162 78.5  A 5.5 5.5 0 0 1 167.5 84 L 167.5 202  A 5.5 5.5 0 0 1 162 207.5 L 26 207.5  A 5.5 5.5 0 0 1 20.5 202 L 20.5 84  Z " stroke-width="1" stroke="#00c3ff" fill="none" stroke-opacity="0.4" />
  </g>
</svg>