<?xml version="1.0" encoding="utf-8"?>
<svg version="1.1" xmlns:xlink="http://www.w3.org/1999/xlink" width="114px" height="36px" xmlns="http://www.w3.org/2000/svg">
  <defs>
    <linearGradient gradientUnits="userSpaceOnUse" x1="617" y1="551" x2="731" y2="551" id="LinearGradient302">
      <stop id="Stop303" stop-color="#037bc2" stop-opacity="0.8" offset="0" />
      <stop id="Stop304" stop-color="#02eade" stop-opacity="0.898039215686275" offset="1" />
    </linearGradient>
  </defs>
  <g transform="matrix(1 0 0 1 -617 -533 )">
    <path d="M 617.5 533.5  L 727 533.5  A 3.5 3.5 0 0 1 730.5 537 L 730.5 565  A 3.5 3.5 0 0 1 727 568.5 L 617.5 568.5  L 617.5 533.5  Z " fill-rule="nonzero" fill="url(#LinearGradient302)" stroke="none" />
    <path d="M 617.5 533.5  L 727 533.5  A 3.5 3.5 0 0 1 730.5 537 L 730.5 565  A 3.5 3.5 0 0 1 727 568.5 L 617.5 568.5  L 617.5 533.5  Z " stroke-width="1" stroke="#08d3f3" fill="none" />
  </g>
</svg>