<?xml version="1.0" encoding="utf-8"?>
<svg version="1.1" xmlns:xlink="http://www.w3.org/1999/xlink" width="164px" height="100px" xmlns="http://www.w3.org/2000/svg">
  <defs>
    <linearGradient gradientUnits="userSpaceOnUse" x1="1034" y1="17" x2="1034" y2="117" id="LinearGradient308">
      <stop id="Stop309" stop-color="#fd5b00" offset="0" />
      <stop id="Stop310" stop-color="#ff0c00" offset="1" />
    </linearGradient>
  </defs>
  <g transform="matrix(1 0 0 1 -952 -17 )">
    <path d="M 952.5 21  A 3.5 3.5 0 0 1 956 17.5 L 1112 17.5  A 3.5 3.5 0 0 1 1115.5 21 L 1115.5 113  A 3.5 3.5 0 0 1 1112 116.5 L 956 116.5  A 3.5 3.5 0 0 1 952.5 113 L 952.5 21  Z " fill-rule="nonzero" fill="#1f3f7e" stroke="none" fill-opacity="0.6" />
    <path d="M 952.5 21  A 3.5 3.5 0 0 1 956 17.5 L 1112 17.5  A 3.5 3.5 0 0 1 1115.5 21 L 1115.5 113  A 3.5 3.5 0 0 1 1112 116.5 L 956 116.5  A 3.5 3.5 0 0 1 952.5 113 L 952.5 21  Z " stroke-width="1" stroke="url(#LinearGradient308)" fill="none" />
  </g>
</svg>