<?xml version="1.0" encoding="utf-8"?>
<svg version="1.1" xmlns:xlink="http://www.w3.org/1999/xlink" width="113px" height="36px" xmlns="http://www.w3.org/2000/svg">
  <defs>
    <linearGradient gradientUnits="userSpaceOnUse" x1="505" y1="551" x2="618" y2="551" id="LinearGradient299">
      <stop id="Stop300" stop-color="#037bc2" stop-opacity="0.8" offset="0" />
      <stop id="Stop301" stop-color="#02eade" stop-opacity="0.898039215686275" offset="1" />
    </linearGradient>
  </defs>
  <g transform="matrix(1 0 0 1 -505 -533 )">
    <path d="M 505.5 537  A 3.5 3.5 0 0 1 509 533.5 L 617.5 533.5  L 617.5 568.5  L 509 568.5  A 3.5 3.5 0 0 1 505.5 565 L 505.5 537  Z " fill-rule="nonzero" fill="url(#LinearGradient299)" stroke="none" />
    <path d="M 505.5 537  A 3.5 3.5 0 0 1 509 533.5 L 617.5 533.5  L 617.5 568.5  L 509 568.5  A 3.5 3.5 0 0 1 505.5 565 L 505.5 537  Z " stroke-width="1" stroke="#08d3f3" fill="none" />
  </g>
</svg>