<?xml version="1.0" encoding="utf-8"?>
<svg version="1.1" xmlns:xlink="http://www.w3.org/1999/xlink" width="28px" height="17px" xmlns="http://www.w3.org/2000/svg">
  <g transform="matrix(1 0 0 1 -146 -435 )">
    <path d="M 27.7194388777555 1.75257731958763  C 27.9064796259185 1.94730813287514  28 2.17124856815578  28 2.42439862542955  C 28 2.67754868270332  27.9064796259185 2.90148911798396  27.7194388777555 3.09621993127148  L 14.6452905811623 16.7079037800687  C 14.4582498329993 16.9026345933562  14.2431529726119 17  14 17  C 13.7568470273881 17  13.5417501670007 16.9026345933562  13.3547094188377 16.7079037800687  L 0.280561122244489 3.09621993127148  C 0.0935203740814966 2.90148911798396  0 2.67754868270332  0 2.42439862542955  C 0 2.17124856815578  0.0935203740814966 1.94730813287514  0.280561122244489 1.75257731958763  L 1.68336673346693 0.292096219931272  C 1.87040748162993 0.0973654066437549  2.08550434201737 0  2.32865731462926 0  C 2.57181028724115 0  2.78690714762859 0.0973654066437549  2.97394789579158 0.292096219931272  L 14 11.7714776632302  L 25.0260521042084 0.292096219931272  C 25.2130928523714 0.0973654066437549  25.4281897127589 0  25.6713426853707 0  C 25.9144956579826 0  26.1295925183701 0.0973654066437549  26.3166332665331 0.292096219931272  L 27.7194388777555 1.75257731958763  Z " fill-rule="nonzero" fill="#d4d4d4" stroke="none" transform="matrix(1 0 0 1 146 435 )" />
  </g>
</svg>