<?xml version="1.0" encoding="utf-8"?>
<svg version="1.1" xmlns:xlink="http://www.w3.org/1999/xlink" width="28px" height="28px" xmlns="http://www.w3.org/2000/svg">
  <g transform="matrix(1 0 0 1 -38 -107 )">
    <path d="M 52 108  C 59.28 108  65 113.72  65 121  C 65 128.28  59.28 134  52 134  C 44.72 134  39 128.28  39 121  C 39 113.72  44.72 108  52 108  Z " fill-rule="nonzero" fill="#ffffff" stroke="none" fill-opacity="0" />
    <path d="M 52 108  C 59.28 108  65 113.72  65 121  C 65 128.28  59.28 134  52 134  C 44.72 134  39 128.28  39 121  C 39 113.72  44.72 108  52 108  Z " stroke-width="2" stroke="#00ccff" fill="none" />
  </g>
</svg>