<?xml version="1.0" encoding="utf-8"?>
<svg version="1.1" xmlns:xlink="http://www.w3.org/1999/xlink" width="100px" height="30px" xmlns="http://www.w3.org/2000/svg">
  <g transform="matrix(1 0 0 1 0 -160 )">
    <path d="M 1 162  A 1 1 0 0 1 2 161 L 98 161  A 1 1 0 0 1 99 162 L 99 188  A 1 1 0 0 1 98 189 L 2 189  A 1 1 0 0 1 1 188 L 1 162  Z " fill-rule="nonzero" fill="#11b0df" stroke="none" fill-opacity="0" />
    <path d="M 0.5 162  A 1.5 1.5 0 0 1 2 160.5 L 98 160.5  A 1.5 1.5 0 0 1 99.5 162 L 99.5 188  A 1.5 1.5 0 0 1 98 189.5 L 2 189.5  A 1.5 1.5 0 0 1 0.5 188 L 0.5 162  Z " stroke-width="1" stroke="#00ccff" fill="none" stroke-opacity="0.2" />
  </g>
</svg>