<?xml version="1.0" encoding="utf-8"?>
<svg version="1.1" xmlns:xlink="http://www.w3.org/1999/xlink" width="240px" height="30px" xmlns="http://www.w3.org/2000/svg">
  <g transform="matrix(1 0 0 1 -816 -690 )">
    <path d="M 817 692  A 1 1 0 0 1 818 691 L 1054 691  A 1 1 0 0 1 1055 692 L 1055 718  A 1 1 0 0 1 1054 719 L 818 719  A 1 1 0 0 1 817 718 L 817 692  Z " fill-rule="nonzero" fill="#104378" stroke="none" />
    <path d="M 816.5 692  A 1.5 1.5 0 0 1 818 690.5 L 1054 690.5  A 1.5 1.5 0 0 1 1055.5 692 L 1055.5 718  A 1.5 1.5 0 0 1 1054 719.5 L 818 719.5  A 1.5 1.5 0 0 1 816.5 718 L 816.5 692  Z " stroke-width="1" stroke="#0792b8" fill="none" stroke-opacity="0.498039215686275" />
  </g>
</svg>