<?xml version="1.0" encoding="utf-8"?>
<svg version="1.1" xmlns:xlink="http://www.w3.org/1999/xlink" width="1609px" height="42px" xmlns="http://www.w3.org/2000/svg">
  <defs>
    <filter x="18px" y="60px" width="1609px" height="42px" filterUnits="userSpaceOnUse" id="filter405">
      <feOffset dx="5" dy="5" in="SourceAlpha" result="shadowOffsetInner" />
      <feGaussianBlur stdDeviation="2.5" in="shadowOffsetInner" result="shadowGaussian" />
      <feComposite in2="shadowGaussian" operator="atop" in="SourceAlpha" result="shadowComposite" />
      <feColorMatrix type="matrix" values="0 0 0 0 0  0 0 0 0 0  0 0 0 0 0  0 0 0 0.349019607843137 0  " in="shadowComposite" />
    </filter>
    <g id="widget406">
      <path d="M 0.666666666666686 12.6666666666666  L 60 12.6666666666666  L 120 8.5  L 172 8.5  L 242.666666666667 0  L 296 17.3333333333334  L 366 15.3333333333334  L 428 12.6666666666666  L 495.333333333333 22.6666666666666  L 550.666666666667 15.3333333333334  L 617.333333333333 24  L 676.666666666667 17.3333333333334  L 736.666666666667 22.6666666666666  L 795.333333333333 12.6666666666666  L 861.333333333333 14  L 906.200529274003 21.3725439339129  L 1016.22695035461 30.7092198581561  L 1100.62411347518 24  L 1183.60283687943 22.6666666666666  L 1267.29078014184 15.3333333333334  L 1350.2695035461 24  L 1381.88729692164 22.3266449738402  L 1440.1190967319 24.3167843650604  L 1512.22716359903 17.7493826012262  L 1597.31343283582 21.3725439339129  " stroke-width="1" stroke="#33ffff" fill="none" transform="matrix(1 0 0 1 18 60 )" />
    </g>
  </defs>
  <g transform="matrix(1 0 0 1 -18 -60 )">
    <use xlink:href="#widget406" filter="url(#filter405)" />
    <use xlink:href="#widget406" />
  </g>
</svg>