<?xml version="1.0" encoding="utf-8"?>
<svg version="1.1" xmlns:xlink="http://www.w3.org/1999/xlink" width="120px" height="80px" xmlns="http://www.w3.org/2000/svg">
  <g transform="matrix(1 0 0 1 -1118 -112 )">
    <path d="M 1118.5 114  A 1.5 1.5 0 0 1 1120 112.5 L 1236 112.5  A 1.5 1.5 0 0 1 1237.5 114 L 1237.5 190  A 1.5 1.5 0 0 1 1236 191.5 L 1120 191.5  A 1.5 1.5 0 0 1 1118.5 190 L 1118.5 114  Z " fill-rule="nonzero" fill="#ffffff" stroke="none" fill-opacity="0" />
    <path d="M 1118.5 114  A 1.5 1.5 0 0 1 1120 112.5 L 1236 112.5  A 1.5 1.5 0 0 1 1237.5 114 L 1237.5 190  A 1.5 1.5 0 0 1 1236 191.5 L 1120 191.5  A 1.5 1.5 0 0 1 1118.5 190 L 1118.5 114  Z " stroke-width="1" stroke="#00ffff" fill="none" />
  </g>
</svg>