<?xml version="1.0" encoding="utf-8"?>
<svg version="1.1" xmlns:xlink="http://www.w3.org/1999/xlink" width="463px" height="233px" xmlns="http://www.w3.org/2000/svg">
  <defs>
    <mask fill="white" id="clip1046">
      <path d="M 0 231.467105263158  L 0 0  L 412.375854214123 0  L 451.925968109339 18.203125  L 462.43742936008 203.030498914885  L 444.015945330296 224.185855263158  L 400.510820045558 232.808388157895  L 0 231.467105263158  Z " fill-rule="evenodd" />
    </mask>
  </defs>
  <g transform="matrix(1 0 0 1 -82 -487 )">
    <path d="M 0 231.467105263158  L 0 0  L 412.375854214123 0  L 451.925968109339 18.203125  L 462.43742936008 203.030498914885  L 444.015945330296 224.185855263158  L 400.510820045558 232.808388157895  L 0 231.467105263158  Z " fill-rule="nonzero" fill="#ffffff" stroke="none" fill-opacity="0" transform="matrix(1 0 0 1 82 487 )" />
    <path d="M 0 231.467105263158  L 0 0  L 412.375854214123 0  L 451.925968109339 18.203125  L 462.43742936008 203.030498914885  L 444.015945330296 224.185855263158  L 400.510820045558 232.808388157895  L 0 231.467105263158  Z " stroke-width="2" stroke="#0792b8" fill="none" stroke-opacity="0.898039215686275" transform="matrix(1 0 0 1 82 487 )" mask="url(#clip1046)" />
  </g>
</svg>