<?xml version="1.0" encoding="utf-8"?>
<svg version="1.1" xmlns:xlink="http://www.w3.org/1999/xlink" width="492px" height="248px" xmlns="http://www.w3.org/2000/svg">
  <defs>
    <mask fill="white" id="clip417">
      <path d="M 0.304267161410001 0.5701149425288  L 0.304267161410001 5.13103448275862  L 0.304267161410001 244.009195402299  L 0.304267161410001 247.429885057471  L 491.39146567718 247.429885057471  L 485.9146567718 1.71034482758621  L 0.304267161410001 0.5701149425288  Z " fill-rule="evenodd" />
    </mask>
  </defs>
  <g transform="matrix(1 0 0 1 -70 -478 )">
    <path d="M 0.304267161410001 0.5701149425288  L 0.304267161410001 5.13103448275862  L 0.304267161410001 244.009195402299  L 0.304267161410001 247.429885057471  L 491.39146567718 247.429885057471  L 485.9146567718 1.71034482758621  L 0.304267161410001 0.5701149425288  Z " fill-rule="nonzero" fill="#ffffff" stroke="none" fill-opacity="0" transform="matrix(1 0 0 1 70 478 )" />
    <path d="M 0.304267161410001 0.5701149425288  L 0.304267161410001 5.13103448275862  L 0.304267161410001 244.009195402299  L 0.304267161410001 247.429885057471  L 491.39146567718 247.429885057471  L 485.9146567718 1.71034482758621  L 0.304267161410001 0.5701149425288  Z " stroke-width="2" stroke="#0792b8" fill="none" stroke-opacity="0.898039215686275" transform="matrix(1 0 0 1 70 478 )" mask="url(#clip417)" />
  </g>
</svg>