<?xml version="1.0" encoding="utf-8"?>
<svg version="1.1" xmlns:xlink="http://www.w3.org/1999/xlink" width="536px" height="244px" xmlns="http://www.w3.org/2000/svg">
  <defs>
    <mask fill="white" id="clip421">
      <path d="M 0.331478045763741 0.560919540229949  L 0.331478045763741 5.04827586206897  L 0.331478045763741 240.073563218391  L 0.331478045763741 243.43908045977  L 535.337043908473 243.43908045977  L 529.370439084725 1.68275862068966  L 0.331478045763741 0.560919540229949  Z " fill-rule="evenodd" />
    </mask>
  </defs>
  <g transform="matrix(1 0 0 1 29 -321 )">
    <path d="M 0.331478045763741 0.560919540229949  L 0.331478045763741 5.04827586206897  L 0.331478045763741 240.073563218391  L 0.331478045763741 243.43908045977  L 535.337043908473 243.43908045977  L 529.370439084725 1.68275862068966  L 0.331478045763741 0.560919540229949  Z " fill-rule="nonzero" fill="#ffffff" stroke="none" fill-opacity="0" transform="matrix(1 0 0 1 -29 321 )" />
    <path d="M 0.331478045763741 0.560919540229949  L 0.331478045763741 5.04827586206897  L 0.331478045763741 240.073563218391  L 0.331478045763741 243.43908045977  L 535.337043908473 243.43908045977  L 529.370439084725 1.68275862068966  L 0.331478045763741 0.560919540229949  Z " stroke-width="2" stroke="#0792b8" fill="none" stroke-opacity="0.698039215686274" transform="matrix(1 0 0 1 -29 321 )" mask="url(#clip421)" />
  </g>
</svg>