<?xml version="1.0" encoding="utf-8"?>
<svg version="1.1" xmlns:xlink="http://www.w3.org/1999/xlink" width="505px" height="230px" xmlns="http://www.w3.org/2000/svg">
  <defs>
    <mask fill="white" id="clip423">
      <path d="M 0 228.486842105263  L 0 0  L 449.783599088838 0  L 492.921412300683 17.96875  L 504.386397034212 200.416372319414  L 484.293849658314 221.299342105263  L 436.842255125285 229.810855263158  L 0 228.486842105263  Z " fill-rule="evenodd" />
    </mask>
  </defs>
  <g transform="matrix(1 0 0 1 15 -330 )">
    <path d="M 0 228.486842105263  L 0 0  L 449.783599088838 0  L 492.921412300683 17.96875  L 504.386397034212 200.416372319414  L 484.293849658314 221.299342105263  L 436.842255125285 229.810855263158  L 0 228.486842105263  Z " fill-rule="nonzero" fill="#ffffff" stroke="none" fill-opacity="0" transform="matrix(1 0 0 1 -15 330 )" />
    <path d="M 0 228.486842105263  L 0 0  L 449.783599088838 0  L 492.921412300683 17.96875  L 504.386397034212 200.416372319414  L 484.293849658314 221.299342105263  L 436.842255125285 229.810855263158  L 0 228.486842105263  Z " stroke-width="2" stroke="#0792b8" fill="none" stroke-opacity="0.698039215686274" transform="matrix(1 0 0 1 -15 330 )" mask="url(#clip423)" />
  </g>
</svg>