<?xml version="1.0" encoding="utf-8"?>
<svg version="1.1" xmlns:xlink="http://www.w3.org/1999/xlink" width="91px" height="38px" xmlns="http://www.w3.org/2000/svg">
  <defs>
    <mask fill="white" id="clip424">
      <path d="M 0 38  L 0 7  L 38.0127261240421 7  L 38.0127261240421 0  L 54.1392405063291 0  L 54.1392405063291 7  L 91 7  L 91 29.2600352303636  L 85.8164556962025 35.72  L 73.7215189873418 38  L 0 38  Z " fill-rule="evenodd" />
    </mask>
  </defs>
  <g transform="matrix(1 0 0 1 -87 -506 )">
    <path d="M 0 38  L 0 7  L 38.0127261240421 7  L 38.0127261240421 0  L 54.1392405063291 0  L 54.1392405063291 7  L 91 7  L 91 29.2600352303636  L 85.8164556962025 35.72  L 73.7215189873418 38  L 0 38  Z " fill-rule="nonzero" fill="#ffffff" stroke="none" fill-opacity="0" transform="matrix(1 0 0 1 87 506 )" />
    <path d="M 0 38  L 0 7  L 38.0127261240421 7  L 38.0127261240421 0  L 54.1392405063291 0  L 54.1392405063291 7  L 91 7  L 91 29.2600352303636  L 85.8164556962025 35.72  L 73.7215189873418 38  L 0 38  Z " stroke-width="2" stroke="#0792b8" fill="none" stroke-opacity="0.698039215686274" transform="matrix(1 0 0 1 87 506 )" mask="url(#clip424)" />
  </g>
</svg>