<?xml version="1.0" encoding="utf-8"?>
<svg version="1.1" xmlns:xlink="http://www.w3.org/1999/xlink" width="220px" height="90px" xmlns="http://www.w3.org/2000/svg">
  <g transform="matrix(1 0 0 1 -1630 -282 )">
    <path d="M 1630.5 284  A 1.5 1.5 0 0 1 1632 282.5 L 1848 282.5  A 1.5 1.5 0 0 1 1849.5 284 L 1849.5 370  A 1.5 1.5 0 0 1 1848 371.5 L 1632 371.5  A 1.5 1.5 0 0 1 1630.5 370 L 1630.5 284  Z " fill-rule="nonzero" fill="#ffffff" stroke="none" fill-opacity="0" />
    <path d="M 1630.5 284  A 1.5 1.5 0 0 1 1632 282.5 L 1848 282.5  A 1.5 1.5 0 0 1 1849.5 284 L 1849.5 370  A 1.5 1.5 0 0 1 1848 371.5 L 1632 371.5  A 1.5 1.5 0 0 1 1630.5 370 L 1630.5 284  Z " stroke-width="1" stroke="#00ffff" fill="none" />
  </g>
</svg>