<?xml version="1.0" encoding="utf-8"?>
<svg version="1.1" xmlns:xlink="http://www.w3.org/1999/xlink" width="80px" height="30px" xmlns="http://www.w3.org/2000/svg">
  <g transform="matrix(1 0 0 1 -1023 -242 )">
    <path d="M 1024 244  A 1 1 0 0 1 1025 243 L 1101 243  A 1 1 0 0 1 1102 244 L 1102 270  A 1 1 0 0 1 1101 271 L 1025 271  A 1 1 0 0 1 1024 270 L 1024 244  Z " fill-rule="nonzero" fill="#ffffff" stroke="none" fill-opacity="0" />
    <path d="M 1023.5 244  A 1.5 1.5 0 0 1 1025 242.5 L 1101 242.5  A 1.5 1.5 0 0 1 1102.5 244 L 1102.5 270  A 1.5 1.5 0 0 1 1101 271.5 L 1025 271.5  A 1.5 1.5 0 0 1 1023.5 270 L 1023.5 244  Z " stroke-width="1" stroke="#0792b8" fill="none" stroke-opacity="0.498039215686275" />
  </g>
</svg>