<?xml version="1.0" encoding="utf-8"?>
<svg version="1.1" xmlns:xlink="http://www.w3.org/1999/xlink" width="92px" height="92px" xmlns="http://www.w3.org/2000/svg">
  <defs>
    <linearGradient gradientUnits="userSpaceOnUse" x1="46" y1="92" x2="46" y2="0.920000000000001" id="LinearGradient33">
      <stop id="Stop34" stop-color="#16a0f7" offset="0" />
      <stop id="Stop35" stop-color="#6fe3ff" offset="1" />
    </linearGradient>
  </defs>
  <g transform="matrix(1 0 0 1 -301 -656 )">
    <path d="M 92 46  C 92 71.76  71.76 92  46 92  C 20.24 92  0 71.76  0 46  C 0 20.24  20.24 0  46 0  C 71.76 0  92 20.24  92 46  Z M 11 46  C 11 65.6  26.4 81  46 81  C 65.6 81  81 65.6  81 46  C 81 26.4  65.6 11  46 11  C 26.4 11  11 26.4  11 46  Z " fill-rule="nonzero" fill="url(#LinearGradient33)" stroke="none" transform="matrix(1 0 0 1 301 656 )" />
  </g>
</svg>