<?xml version="1.0" encoding="utf-8"?>
<svg version="1.1" xmlns:xlink="http://www.w3.org/1999/xlink" width="114px" height="41px" xmlns="http://www.w3.org/2000/svg">
  <defs>
    <filter x="14px" y="247px" width="114px" height="41px" filterUnits="userSpaceOnUse" id="filter663">
      <feOffset dx="2" dy="2" in="SourceAlpha" result="shadowOffsetInner" />
      <feGaussianBlur stdDeviation="2.5" in="shadowOffsetInner" result="shadowGaussian" />
      <feComposite in2="shadowGaussian" operator="atop" in="SourceAlpha" result="shadowComposite" />
      <feColorMatrix type="matrix" values="0 0 0 0 1  0 0 0 0 1  0 0 0 0 1  0 0 0 0.145098039215686 0  " in="shadowComposite" />
    </filter>
    <g id="widget664">
      <path d="M 17.5 252  A 1.5 1.5 0 0 1 19 250.5 L 119 250.5  A 1.5 1.5 0 0 1 120.5 252 L 120.5 279  A 1.5 1.5 0 0 1 119 280.5 L 19 280.5  A 1.5 1.5 0 0 1 17.5 279 L 17.5 252  Z " fill-rule="nonzero" fill="#16416c" stroke="none" fill-opacity="0.8" />
      <path d="M 17.5 252  A 1.5 1.5 0 0 1 19 250.5 L 119 250.5  A 1.5 1.5 0 0 1 120.5 252 L 120.5 279  A 1.5 1.5 0 0 1 119 280.5 L 19 280.5  A 1.5 1.5 0 0 1 17.5 279 L 17.5 252  Z " stroke-width="1" stroke="#00d8ff" fill="none" />
    </g>
  </defs>
  <g transform="matrix(1 0 0 1 -14 -247 )">
    <use xlink:href="#widget664" filter="url(#filter663)" />
    <use xlink:href="#widget664" />
  </g>
</svg>