<?xml version="1.0" encoding="utf-8"?>
<svg version="1.1" xmlns:xlink="http://www.w3.org/1999/xlink" width="46px" height="46px" xmlns="http://www.w3.org/2000/svg">
  <g transform="matrix(1 0 0 1 -1525 -339 )">
    <path d="M 1548 339  C 1560.88 339  1571 349.12  1571 362  C 1571 374.88  1560.88 385  1548 385  C 1535.12 385  1525 374.88  1525 362  C 1525 349.12  1535.12 339  1548 339  Z " fill-rule="nonzero" fill="#ffffff" stroke="none" fill-opacity="0" />
    <path d="M 1548 339.5  C 1560.6 339.5  1570.5 349.4  1570.5 362  C 1570.5 374.6  1560.6 384.5  1548 384.5  C 1535.4 384.5  1525.5 374.6  1525.5 362  C 1525.5 349.4  1535.4 339.5  1548 339.5  Z " stroke-width="1" stroke="#ff0000" fill="none" />
  </g>
</svg>