<?xml version="1.0" encoding="utf-8"?>
<svg version="1.1" xmlns:xlink="http://www.w3.org/1999/xlink" width="200px" height="200px" xmlns="http://www.w3.org/2000/svg">
  <g transform="matrix(1 0 0 1 786 -550 )">
    <path d="M 99.832035923692 0.000131968170194341  C 99.8880119277791 4.40000567323295E-05  99.9439999638818 0  99.832035923692 0.000131968170194341  Z M 100 0.000131970548636673  L 100 15  C 52.4 15  15 52.4  15 100  C 15 147.6  52.4 185  100 185  C 147.6 185  185 147.6  184.999689382205 100  L 200 100  C 200 156  156 200  100 200  C 44 200  0 156  0 100  C 0 44.0560000361181  43.9120439432996 0.0880120567726408  100 0.000131970548636673  Z " fill-rule="nonzero" fill="#ffffff" stroke="none" fill-opacity="0.352941176470588" transform="matrix(1 0 0 1 -786 550 )" />
  </g>
</svg>