<?xml version="1.0" encoding="utf-8"?>
<svg version="1.1" xmlns:xlink="http://www.w3.org/1999/xlink" width="200px" height="174px" xmlns="http://www.w3.org/2000/svg">
  <g transform="matrix(1 0 0 1 253 25 )">
    <path d="M 200 100  C 200 128.641288428911  188.490360418943 154.143584244807  169.752261952536 172.225706741863  C 169.564769261745 172.406635762396  169.376552862968 172.586821880635  169.187617045046 172.766260807737  L 169.076241960137 172.654888621769  C 167.595913806689 173.512262895749  165.86446650847 174  164 174  C 158.4 174  154 169.6  154 164  C 154 162.135532741364  154.487737496732 160.404084800018  155.345112445776 158.923756272038  L 154.981849113481 158.560492941411  C 170.455823433455 144.05287174844  180 123.32791449693  180 100  C 180 55.2  144.8 20  100 20  C 55.2 20  20 55.2  20 100  C 20 123.32791449693  29.5441765665451 144.05287174844  45.0181509212457 158.560492841445  L 44.6548875653206 158.923756215817  C 45.5122624950926 160.404084770996  46 162.135532725738  46 164  C 46 169.6  41.6 174  36 174  C 34.1355335407473 174  32.404086284722 173.512262921499  30.9237623964812 172.654881552206  L 30.8123830434755 172.766260906681  C 30.6234471795774 172.586821935766  30.435230735176 172.406635773368  30.2477379991163 172.225706708331  C 11.5096395260769 154.143584122985  0 128.641288360503  0 100  C 0 44  44 0  100 0  C 156 0  200 44  200 100  Z " fill-rule="nonzero" fill="#34426c" stroke="none" transform="matrix(1 0 0 1 -253 -25 )" />
  </g>
</svg>