<?xml version="1.0" encoding="utf-8"?>
<svg version="1.1" xmlns:xlink="http://www.w3.org/1999/xlink" width="114px" height="66px" xmlns="http://www.w3.org/2000/svg">
  <defs>
    <linearGradient gradientUnits="userSpaceOnUse" x1="57" y1="38.544" x2="57" y2="66" id="LinearGradient763">
      <stop id="Stop764" stop-color="#3cb8ff" offset="0" />
      <stop id="Stop765" stop-color="#2260ff" offset="1" />
    </linearGradient>
  </defs>
  <g transform="matrix(1 0 0 1 0 -4 )">
    <path d="M 0 9  C 0 -2.10179788196556  11.6565716036082 0.340884387024277  20.751633986928 0.941176470588124  C 37.8067856826424 2.06685017302411  45.0354141811631 19.1175670723051  77.9411764705883 16.3006535947712  C 96.047351310093 14.7506658606054  109.456928838951 3.99250936329594  109.456928838951 3.99250936329594  C 109.456928838951 3.99250936329594  109.436627400563 3.96053726471575  109.436627392544 3.96053725208531  C 109.436627388534 3.96053724577008  109.44170274813 3.96853027041513  109.456928838951 3.99250936329594  C 110.363341063422 5.41998954678554  114 3.21238171146842  114 9  C 114 40.92  88.9200000000001 66  57 66  C 25.0799999999999 66  0 40.92  0 9  Z " fill-rule="nonzero" fill="url(#LinearGradient763)" stroke="none" transform="matrix(1 0 0 1 0 4 )" />
  </g>
</svg>