<?xml version="1.0" encoding="utf-8"?>
<svg version="1.1" xmlns:xlink="http://www.w3.org/1999/xlink" width="8px" height="8px" xmlns="http://www.w3.org/2000/svg">
  <g transform="matrix(1 0 0 1 -84 -19 )">
    <path d="M 88 19  C 90.24 19  92 20.76  92 23  C 92 25.24  90.24 27  88 27  C 85.76 27  84 25.24  84 23  C 84 20.76  85.76 19  88 19  Z " fill-rule="nonzero" fill="#192b62" stroke="none" />
    <path d="M 88 19.5  C 89.96 19.5  91.5 21.04  91.5 23  C 91.5 24.96  89.96 26.5  88 26.5  C 86.04 26.5  84.5 24.96  84.5 23  C 84.5 21.04  86.04 19.5  88 19.5  Z " stroke-width="1" stroke="#ffffff" fill="none" />
  </g>
</svg>