<?xml version="1.0" encoding="utf-8"?>
<svg version="1.1" xmlns:xlink="http://www.w3.org/1999/xlink" width="446px" height="65px" xmlns="http://www.w3.org/2000/svg">
  <g transform="matrix(1 0 0 1 -1 1 )">
    <path d="M 0.6204481792717 54.2325581395348  C 0.6204481792717 54.2325581395348  21.5425379454107 11.2093023255812  48.5969643671422 22.8372093023255  C 75.6513907888737 34.4651162790698  84.3088072438278 59.2713178294573  106.313074066836 50.7441860465116  C 128.317340889844 42.2170542635658  162.947006709661 6.17054263565888  162.947006709661 6.17054263565888  C 162.947006709661 6.17054263565888  183.508370790177 -9.33333333333337  215.252231125008 13.1472868217054  C 246.99609145984 35.6279069767442  259.621490456648 61.1937984496124  280.182854537164 61.5968992248062  C 300.74421861768 62  313.369617614488 60.4341085271317  350.524363233666 38.3410852713178  C 387.679108852843 16.2480620155038  397.418702364667 -0.806201550387641  421.948048987037 6.17054263565888  C 446.477395609406 13.1472868217054  441.787961696306 13.1472868217054  441.787961696306 13.1472868217054  " stroke-width="2" stroke="#face48" fill="none" transform="matrix(1 0 0 1 2 0 )" />
  </g>
</svg>