<?xml version="1.0" encoding="utf-8"?>
<svg version="1.1" xmlns:xlink="http://www.w3.org/1999/xlink" width="446px" height="69px" xmlns="http://www.w3.org/2000/svg">
  <defs>
    <linearGradient gradientUnits="userSpaceOnUse" x1="223" y1="0" x2="223" y2="65.5914" id="LinearGradient300">
      <stop id="Stop301" stop-color="#f7e26d" offset="0" />
      <stop id="Stop302" stop-color="#fea60a" stop-opacity="0" offset="1" />
    </linearGradient>
  </defs>
  <g>
    <path d="M 0.669106815244614 68  L 3.08756518359858 52.8744588744588  C 3.08756518359858 52.8744588744588  17.5983153937225 18.6753246753245  42.9921282614393 21.7056277056276  C 68.3859411291562 24.7359307359308  83.2997677340057 48.1125541125541  83.2997677340057 48.1125541125541  C 83.2997677340057 48.1125541125541  90.152066444342 68.4588744588743  142.551997758678 25.6017316017316  C 153.381369210247 16.7445459583231  161.606720825131 8.67144908745979  169.433162522933 5.12121212121212  C 199.476417070619 -8.50703389402952  209.462679283139 9.61471861471864  209.462679283139 9.61471861471864  C 209.462679283139 9.61471861471864  219.865656766928 13.799742959828  228.81034622997 21.7056277056276  C 245.470844710046 36.4312345962037  267.494896036993 62.3982683982683  277.985666386501 62.3982683982683  C 294.108722175528 62.3982683982683  338.447125595351 48.1125541125541  338.447125595351 48.1125541125541  L 405.357807119811 6.12121212121212  L 418.592884599224 4.95336529810857  L 445 12.6147186147186  L 445 68  L 0.669106815244614 68  Z " fill-rule="nonzero" fill="url(#LinearGradient300)" stroke="none" />
  </g>
</svg>