<?xml version="1.0" encoding="utf-8"?>
<svg version="1.1" xmlns:xlink="http://www.w3.org/1999/xlink" width="200px" height="175px" xmlns="http://www.w3.org/2000/svg">
  <defs>
    <linearGradient gradientUnits="userSpaceOnUse" x1="200" y1="87.5" x2="15.86" y2="87.5" id="LinearGradient315">
      <stop id="Stop316" stop-color="#0c7cff" offset="0" />
      <stop id="Stop317" stop-color="#2f47e3" offset="1" />
    </linearGradient>
  </defs>
  <g transform="matrix(1 0 0 1 253 26 )">
    <path d="M 100 0  C 153.552591883969 0  196.131152782642 40.2381136127561  199.750542729609 92.7294856456536  C 199.913929255624 93.4570132825687  200 94.2167697215967  200 95  C 200 100.6  195.6 105  190 105  C 184.4 105  180 100.6  180.000025187872 95  L 179.852735803579 95  C 177.345460560034 52.6085096769064  143.119345235959 20  100 20  C 55.2 20  20 55.2  20 100  C 20 123.32791449693  29.5441765665451 144.05287174844  45.0181509212457 158.560492841445  L 44.8443108875409 158.734333251617  C 46.1985097484481 160.438446155857  47 162.609928952717  47 165  C 47 170.6  42.6 175  37 175  C 33.588312532018 175  30.6220183566068 173.366891260573  28.8247092401326 170.824265550713  C 10.9286110132194 152.837456509825  0 127.908993393079  0 100  C 0 44  44 0  100 0  Z " fill-rule="nonzero" fill="url(#LinearGradient315)" stroke="none" transform="matrix(1 0 0 1 -253 -26 )" />
  </g>
</svg>