<?xml version="1.0" encoding="utf-8"?>
<svg version="1.1" xmlns:xlink="http://www.w3.org/1999/xlink" width="180px" height="180px" xmlns="http://www.w3.org/2000/svg">
  <defs>
    <linearGradient gradientUnits="userSpaceOnUse" x1="180" y1="90" x2="14.274" y2="90" id="LinearGradient325">
      <stop id="Stop326" stop-color="#0c7cff" offset="0" />
      <stop id="Stop327" stop-color="#2f47e3" offset="1" />
    </linearGradient>
  </defs>
  <g transform="matrix(1 0 0 1 365 -286 )">
    <path d="M 90 162  C 126.58849150846 162  156.06219926445 135.912459574279  161.204947631769 100.95425812055  C 161.070601194671 100.326664253137  161 99.6729595622055  161 99  C 161 93.96  164.96 90  170 90  C 175.04 90  179 93.96  178.999978189332 99  L 179.573707423025 99  C 175.181296825336 145.035166779705  137.358580215436 180  90 180  C 39.6 180  0 140.4  0 90  C 0 42.6844490369576  34.9013251024644 4.88744128367819  81 0.438347966369122  L 81.000000718982 1.05271487327889  C 85.5540598028286 1.53679383656606  89 5.2984959823051  89 10  C 89 15.04  85.04 19  80 19  C 79.4853730572294 19  78.9820063563902 18.9587124462517  78.4929658410044 18.8792041436994  C 43.8128911698122 24.2491187386667  18 53.604619664359  18 90  C 18 130.32  49.68 162  90 162  Z " fill-rule="nonzero" fill="url(#LinearGradient325)" stroke="none" transform="matrix(1 0 0 1 -365 286 )" />
  </g>
</svg>