<?xml version="1.0" encoding="utf-8"?>
<svg version="1.1" xmlns:xlink="http://www.w3.org/1999/xlink" width="200px" height="200px" xmlns="http://www.w3.org/2000/svg">
  <defs>
    <linearGradient gradientUnits="userSpaceOnUse" x1="200" y1="100" x2="19.5428" y2="100" id="LinearGradient958">
      <stop id="Stop959" stop-color="#0cfff9" offset="0" />
      <stop id="Stop960" stop-color="#2face3" offset="1" />
    </linearGradient>
  </defs>
  <g transform="matrix(1 0 0 1 -383 -266 )">
    <path d="M 100 185  C 143.566353711141 185  178.588167315661 153.670019609053  184.210614607114 111.864911180142  C 184.072739779881 111.268182063567  184 110.644010092676  184 110  C 184 105.52  187.52 102  192 102  C 196.48 102  200 105.52  200 110  C 200 111.358012019713  199.676559899513 112.627813102928  199.100984414751 113.738098904515  C 192.579674677712 163.031056926775  151.331056848841 200  100 200  C 44 200  0 156  0 100  C 0 48.7291919530689  36.8822108872928 7.51716869358165  86.2176722710818 0.922121973375624  C 87.3384155681467 0.332103461722909  88.6239209483838 0  90 0  C 94.48 0  98 3.51999999999998  98 8  C 98 12.48  94.48 16  90 16  C 89.3557554733647 16  88.7313635141768 15.9272072526931  88.1344363596573 15.7892382262844  C 46.3296548633078 21.4121965723787  15 56.433872623011  15 100  C 15 147.6  52.4 185  100 185  Z " fill-rule="nonzero" fill="url(#LinearGradient958)" stroke="none" transform="matrix(1 0 0 1 383 266 )" />
  </g>
</svg>