<?xml version="1.0" encoding="utf-8"?>
<svg version="1.1" xmlns:xlink="http://www.w3.org/1999/xlink" width="67px" height="67px" xmlns="http://www.w3.org/2000/svg">
  <g transform="matrix(1 0 0 1 -2 -3 )">
    <path d="M 35.5 3  C 54.26 3  69 17.74  69 36.5  C 69 55.26  54.26 70  35.5 70  C 16.74 70  2 55.26  2 36.5  C 2 17.74  16.74 3  35.5 3  Z " fill-rule="nonzero" fill="#2779b7" stroke="none" fill-opacity="0" />
    <path d="M 35.5 3.5  C 53.98 3.5  68.5 18.02  68.5 36.5  C 68.5 54.98  53.98 69.5  35.5 69.5  C 17.02 69.5  2.5 54.98  2.5 36.5  C 2.5 18.02  17.02 3.5  35.5 3.5  Z " stroke-width="1" stroke="#04b2e2" fill="none" />
  </g>
</svg>