<?xml version="1.0" encoding="utf-8"?>
<svg version="1.1" xmlns:xlink="http://www.w3.org/1999/xlink" width="467px" height="70px" xmlns="http://www.w3.org/2000/svg">
  <defs>
    <linearGradient gradientUnits="userSpaceOnUse" x1="233.5" y1="17.5" x2="233.5" y2="67.9" id="LinearGradient241">
      <stop id="Stop242" stop-color="#00ddff" offset="0" />
      <stop id="Stop243" stop-color="#00ddff" stop-opacity="0" offset="1" />
    </linearGradient>
  </defs>
  <g transform="matrix(1 0 0 1 -66 -97 )">
    <path d="M 0 70  L 0 38  C 0 38  46 18.5  76 25  C 106 31.5  149.5 62  175.5 59.5  C 201.5 57  256 13  268 13  C 280 13  273.5 3.5  304.5 22.5  C 335.5 41.5  335.5 51.5  363 46.5  C 390.5 41.5  438 13  438 13  L 467 0  L 467 70  L 0 70  Z " fill-rule="nonzero" fill="url(#LinearGradient241)" stroke="none" transform="matrix(1 0 0 1 66 97 )" />
  </g>
</svg>