<?xml version="1.0" encoding="utf-8"?>
<svg version="1.1" xmlns:xlink="http://www.w3.org/1999/xlink" width="479px" height="65px" xmlns="http://www.w3.org/2000/svg">
  <g transform="matrix(1 0 0 1 -60 -45 )">
    <path d="M 0.666666666666657 54.2325581395348  C 0.666666666666657 54.2325581395348  23.1472868217055 11.2093023255812  52.2170542635659 22.8372093023255  C 81.2868217054263 34.4651162790698  90.5891472868217 59.2713178294573  114.232558139535 50.7441860465116  C 137.875968992248 42.2170542635658  175.085271317829 6.17054263565888  175.085271317829 6.17054263565888  C 175.085271317829 6.17054263565888  197.178294573643 -9.33333333333337  231.286821705426 13.1472868217054  C 265.395348837209 35.6279069767442  278.961240310078 61.1937984496124  301.054263565891 61.5968992248062  C 323.147286821705 62  336.713178294574 60.4341085271317  376.635658914729 38.3410852713178  C 416.558139534884 16.2480620155038  427.023255813954 -0.806201550387641  453.37984496124 6.17054263565888  C 479.736434108527 13.1472868217054  474.697674418605 13.1472868217054  474.697674418605 13.1472868217054  " stroke-width="2" stroke="#116cfa" fill="none" transform="matrix(1 0 0 1 61 46 )" />
  </g>
</svg>