<?xml version="1.0" encoding="utf-8"?>
<svg version="1.1" xmlns:xlink="http://www.w3.org/1999/xlink" width="479px" height="69px" xmlns="http://www.w3.org/2000/svg">
  <defs>
    <linearGradient gradientUnits="userSpaceOnUse" x1="239.5" y1="0" x2="239.5" y2="67.62" id="LinearGradient871">
      <stop id="Stop872" stop-color="#106eff" offset="0" />
      <stop id="Stop873" stop-color="#106eff" stop-opacity="0" offset="1" />
    </linearGradient>
  </defs>
  <g transform="matrix(1 0 0 1 -59 -46 )">
    <path d="M 0.718614718614731 68  L 3.31601731601731 52.8744588744588  C 3.31601731601731 52.8744588744588  18.9004329004329 18.6753246753245  46.1731601731602 21.7056277056276  C 73.4458874458875 24.7359307359308  89.4632034632035 48.1125541125541  89.4632034632035 48.1125541125541  C 89.4632034632035 48.1125541125541  96.8225108225108 68.4588744588743  153.099567099567 25.6017316017316  C 164.730214914144 16.7445459583231  173.56416877856 8.67144908745979  181.969696969697 5.12121212121212  C 214.235882907682 -8.50703389402952  224.961038961039 9.61471861471864  224.961038961039 9.61471861471864  C 224.961038961039 9.61471861471864  236.133743478382 13.799742959828  245.74025974026 21.7056277056276  C 263.633485686349 36.4312345962037  287.287119286367 62.3982683982683  298.554112554113 62.3982683982683  C 315.87012987013 62.3982683982683  363.489177489177 48.1125541125541  363.489177489177 48.1125541125541  L 435.350649350649 6.12121212121212  L 449.565003863292 4.95336529810857  L 478 12.6147186147186  L 478 68  L 0.718614718614731 68  Z " fill-rule="nonzero" fill="url(#LinearGradient871)" stroke="none" transform="matrix(1 0 0 1 59 46 )" />
  </g>
</svg>