<?xml version="1.0" encoding="utf-8"?>
<svg version="1.1" xmlns:xlink="http://www.w3.org/1999/xlink" width="20px" height="15px" xmlns="http://www.w3.org/2000/svg">
  <g transform="matrix(1 0 0 1 -797 -79 )">
    <path d="M 19.125 8.35759943181818  C 19.7083333333333 9.09978693181818  20 9.95028409090909  20 10.9090909090909  C 20 12.0383522727273  19.609375 13.0024857954545  18.828125 13.8014914772727  C 18.046875 14.6004971590909  17.1041666666667 15  16 15  L 4.66666666666667 15  C 3.38194444444444 15  2.28298611111111 14.5330255681818  1.36979166666667 13.5990767045455  C 0.456597222222222 12.6651278409091  0 11.5411931818182  0 10.2272727272727  C 0 9.28977272727273  0.246527777777778 8.43217329545455  0.739583333333333 7.65447443181818  C 1.23263888888889 6.87677556818182  1.88194444444444 6.29616477272727  2.6875 5.91264204545455  C 2.67361111111111 5.71377840909091  2.66666666666667 5.56107954545455  2.66666666666667 5.45454545454546  C 2.66666666666667 3.94886363636364  3.1875 2.66335227272727  4.22916666666667 1.59801136363636  C 5.27083333333333 0.532670454545455  6.52777777777778 0  8 0  C 9.09722222222222 0  10.0920138888889 0.312499999999999  10.984375 0.9375  C 11.8767361111111 1.5625  12.5277777777778 2.37926136363636  12.9375 3.38778409090909  C 13.4236111111111 2.94744318181818  14 2.72727272727273  14.6666666666667 2.72727272727273  C 15.4027777777778 2.72727272727273  16.03125 2.99360795454545  16.5520833333333 3.52627840909091  C 17.0729166666667 4.05894886363636  17.3333333333333 4.70170454545454  17.3333333333333 5.45454545454546  C 17.3333333333333 5.98721590909091  17.1909722222222 6.47727272727273  16.90625 6.92471590909091  C 17.8020833333333 7.13778409090909  18.5416666666667 7.61541193181818  19.125 8.35759943181818  Z " fill-rule="nonzero" fill="#2ef2f8" stroke="none" transform="matrix(1 0 0 1 797 79 )" />
  </g>
</svg>