<?xml version="1.0" encoding="utf-8"?>
<svg version="1.1" xmlns:xlink="http://www.w3.org/1999/xlink" width="20px" height="20px" xmlns="http://www.w3.org/2000/svg">
  <g transform="matrix(1 0 0 1 -561 -76 )">
    <path d="M 12.3567708333333 7.64322916666667  C 13.0078125 8.29427083333333  13.3333333333333 9.07986111111111  13.3333333333333 10  C 13.3333333333333 10.9201388888889  13.0078125 11.7057291666667  12.3567708333333 12.3567708333333  C 11.7057291666667 13.0078125  10.9201388888889 13.3333333333333  10 13.3333333333333  C 9.07986111111111 13.3333333333333  8.29427083333333 13.0078125  7.64322916666667 12.3567708333333  C 6.9921875 11.7057291666667  6.66666666666667 10.9201388888889  6.66666666666667 10  C 6.66666666666667 9.07986111111111  6.9921875 8.29427083333333  7.64322916666667 7.64322916666667  C 8.29427083333333 6.9921875  9.07986111111111 6.66666666666667  10 6.66666666666667  C 10.9201388888889 6.66666666666667  11.7057291666667 6.9921875  12.3567708333333 7.64322916666667  Z M 13.53515625 13.53515625  C 14.51171875 12.55859375  15 11.3802083333333  15 10  C 15 8.61979166666667  14.51171875 7.44140625  13.53515625 6.46484375  C 12.55859375 5.48828125  11.3802083333333 5  10 5  C 8.61979166666667 5  7.44140625 5.48828125  6.46484375 6.46484375  C 5.48828125 7.44140625  5 8.61979166666667  5 10  C 5 11.3802083333333  5.48828125 12.55859375  6.46484375 13.53515625  C 7.44140625 14.51171875  8.61979166666667 15  10 15  C 11.3802083333333 15  12.55859375 14.51171875  13.53515625 13.53515625  Z M 14.7135416666667 5.28645833333333  C 16.015625 6.58854166666667  16.6666666666667 8.15972222222222  16.6666666666667 10  C 16.6666666666667 11.8402777777778  16.015625 13.4114583333333  14.7135416666667 14.7135416666667  C 13.4114583333333 16.015625  11.8402777777778 16.6666666666667  10 16.6666666666667  C 8.15972222222222 16.6666666666667  6.58854166666667 16.015625  5.28645833333333 14.7135416666667  C 3.984375 13.4114583333333  3.33333333333333 11.8402777777778  3.33333333333333 10  C 3.33333333333333 8.15972222222222  3.984375 6.58854166666667  5.28645833333333 5.28645833333333  C 6.58854166666667 3.984375  8.15972222222222 3.33333333333333  10 3.33333333333333  C 11.8402777777778 3.33333333333333  13.4114583333333 3.984375  14.7135416666667 5.28645833333333  Z M 17.6692708333333 13.2356770833333  C 18.1119791666667 12.20703125  18.3333333333333 11.1284722222222  18.3333333333333 10  C 18.3333333333333 8.87152777777778  18.1119791666667 7.79296875  17.6692708333333 6.76432291666667  C 17.2265625 5.73567708333333  16.6341145833333 4.85026041666667  15.8919270833333 4.10807291666667  C 15.1497395833333 3.36588541666667  14.2643229166667 2.7734375  13.2356770833333 2.33072916666667  C 12.20703125 1.88802083333333  11.1284722222222 1.66666666666667  10 1.66666666666667  C 8.87152777777778 1.66666666666667  7.79296875 1.88802083333333  6.76432291666667 2.33072916666667  C 5.73567708333333 2.7734375  4.85026041666667 3.36588541666667  4.10807291666667 4.10807291666667  C 3.36588541666667 4.85026041666667  2.7734375 5.73567708333333  2.33072916666667 6.76432291666667  C 1.88802083333333 7.79296875  1.66666666666667 8.87152777777778  1.66666666666667 10  C 1.66666666666667 11.1284722222222  1.88802083333333 12.20703125  2.33072916666667 13.2356770833333  C 2.7734375 14.2643229166667  3.36588541666667 15.1497395833333  4.10807291666667 15.8919270833333  C 4.85026041666667 16.6341145833333  5.73567708333333 17.2265625  6.76432291666667 17.6692708333333  C 7.79296875 18.1119791666667  8.87152777777778 18.3333333333333  10 18.3333333333333  C 11.1284722222222 18.3333333333333  12.20703125 18.1119791666667  13.2356770833333 17.6692708333333  C 14.2643229166667 17.2265625  15.1497395833333 16.6341145833333  15.8919270833333 15.8919270833333  C 16.6341145833333 15.1497395833333  17.2265625 14.2643229166667  17.6692708333333 13.2356770833333  Z M 18.6588541666667 4.98046875  C 19.5529513888889 6.51258680555555  20 8.18576388888889  20 10  C 20 11.8142361111111  19.5529513888889 13.4874131944444  18.6588541666667 15.01953125  C 17.7647569444444 16.5516493055556  16.5516493055556 17.7647569444444  15.01953125 18.6588541666667  C 13.4874131944444 19.5529513888889  11.8142361111111 20  10 20  C 8.18576388888889 20  6.51258680555556 19.5529513888889  4.98046875 18.6588541666667  C 3.44835069444444 17.7647569444444  2.23524305555556 16.5516493055556  1.34114583333333 15.01953125  C 0.447048611111111 13.4874131944444  0 11.8142361111111  0 10  C 0 8.18576388888889  0.447048611111111 6.51258680555555  1.34114583333333 4.98046875  C 2.23524305555556 3.44835069444444  3.44835069444444 2.23524305555555  4.98046875 1.34114583333333  C 6.51258680555556 0.447048611111109  8.18576388888889 0  10 0  C 11.8142361111111 0  13.4874131944444 0.447048611111109  15.01953125 1.34114583333333  C 16.5516493055556 2.23524305555555  17.7647569444444 3.44835069444444  18.6588541666667 4.98046875  Z " fill-rule="nonzero" fill="#2ef2f8" stroke="none" transform="matrix(1 0 0 1 561 76 )" />
  </g>
</svg>