<?xml version="1.0" encoding="utf-8"?>
<svg version="1.1" xmlns:xlink="http://www.w3.org/1999/xlink" width="102px" height="106px" xmlns="http://www.w3.org/2000/svg">
  <defs>
    <linearGradient gradientUnits="userSpaceOnUse" x1="51" y1="0" x2="51" y2="104.94" id="LinearGradient1121">
      <stop id="Stop1122" stop-color="#fce268" offset="0" />
      <stop id="Stop1123" stop-color="#fcab12" offset="1" />
    </linearGradient>
  </defs>
  <g transform="matrix(1 0 0 1 -98 0 )">
    <path d="M 101.91447162516 104.807669356184  L 82.0655779629244 103.972891464653  C 82.1083096275842 102.865783712391  82.1298701298701 101.752325566675  82.1298701298701 100.632911392405  C 82.1298701298701 55.5493670886076  47.1584415584416 20.126582278481  2.64935064935065 20.126582278481  C 1.98591822129684 20.126582278481  1.3246048270546 20.1344523493698  0.665494741390145 20.1501077518089  L 0.169578701696862 0.0313516038932454  C 0.996008383639872 0.0104513486454291  1.82266341776242 0  2.64935064935065 0  C 57.5191991715009 0  102 45.0548890993062  102 100.632911392405  C 102 102.024946784023  101.971484404637 103.416832331416  101.91447162516 104.807669356184  Z " fill-rule="nonzero" fill="url(#LinearGradient1121)" stroke="none" transform="matrix(1 0 0 1 98 0 )" />
  </g>
</svg>