<?xml version="1.0" encoding="utf-8"?>
<svg version="1.1" xmlns:xlink="http://www.w3.org/1999/xlink" width="527px" height="128px" xmlns="http://www.w3.org/2000/svg">
  <defs>
    <linearGradient gradientUnits="userSpaceOnUse" x1="263.5" y1="32" x2="263.5" y2="124.16" id="LinearGradient1143">
      <stop id="Stop1144" stop-color="#00ddff" offset="0" />
      <stop id="Stop1145" stop-color="#00ddff" stop-opacity="0" offset="1" />
    </linearGradient>
  </defs>
  <g>
    <path d="M 0.142076502732152 128  L 0 42.7049180327868  C 0 42.7049180327868  73.8012422360223 25.2173913043455  91.956521739128 30.3478260869542  C 110.111801242234 35.478260869563  115.649405679406 37.9371304173656  128.075637555001 43.0870908037597  C 142.155498775169 48.9223857069721  158.668357146077 54.2551178518681  172.854596106151 57.8731905316877  C 179.092316397915 59.4640650006365  184.880212715812 63.1434165766973  189.813664596271 62.2981366459604  C 196.878324098189 61.0877032538533  203.047224712788 58.3892150172766  212.89963511027 54.645881131636  C 239.384602114604 44.5831583615063  263.905723599745 19.2142857142857  272.670807453414 19.2142857142857  C 280.170773433493 19.2142857142857  285.366751346628 9.33863775293884  293.493336449023 14.6517738931581  C 295.09562686867 15.6993464009806  302.340383409739 18.1222825809712  313.289011991554 24.9711372769527  C 320.973089479111 29.7778699002832  330.989001158299 38.7943953074056  339.975185532418 42.3097034737699  C 357.371844051041 49.1151075487296  374.294490232372 48.1185948407095  383.881987577637 45.0124223602461  C 411.440874087273 36.0838509316748  445.85714285714 16.9711372769527  445.85714285714 16.9711372769527  C 445.85714285714 16.9711372769527  460.790411375048 5.91191843754666  481.477611940299 2  C 505.686569110092 -2.57787730184083  526.253731343284 3  526.253731343284 3  L 527 128  L 0.142076502732152 128  Z " fill-rule="nonzero" fill="url(#LinearGradient1143)" stroke="none" />
  </g>
</svg>