<?xml version="1.0" encoding="utf-8"?>
<svg version="1.1" xmlns:xlink="http://www.w3.org/1999/xlink" width="82px" height="84px" xmlns="http://www.w3.org/2000/svg">
  <defs>
    <linearGradient gradientUnits="userSpaceOnUse" x1="41" y1="0.84" x2="41" y2="81.5136" id="LinearGradient1156">
      <stop id="Stop1157" stop-color="#00e2ff" offset="0" />
      <stop id="Stop1158" stop-color="#08c5df" offset="1" />
    </linearGradient>
  </defs>
  <g transform="matrix(1 0 0 1 -182 -19 )">
    <path d="M 81.9312418947365 83.0551342067872  L 65.9742881662726 82.3936121040645  C 66.008641073156 81.5162814324606  66.025974025974 80.6339183735915  66.025974025974 79.746835443038  C 66.025974025974 44.0202531645569  37.9116883116883 15.9493670886076  2.12987012987013 15.9493670886076  C 1.5965224916308 15.9493670886076  1.06487839037722 15.9556037485572  0.535005576411685 15.9680099165278  L 0.136327975873948 0.0248446672361567  C 0.800712622141858 0.00828220081335887  1.46527843388744 0  2.12987012987013 0  C 46.2409248241478 0  82 35.7038743805823  82 79.746835443038  C 82 80.8499578288487  81.9770756978458 81.9529614701788  81.9312418947365 83.0551342067872  Z " fill-rule="nonzero" fill="url(#LinearGradient1156)" stroke="none" transform="matrix(1 0 0 1 182 19 )" />
  </g>
</svg>