<?xml version="1.0" encoding="utf-8"?>
<svg version="1.1" xmlns:xlink="http://www.w3.org/1999/xlink" width="479px" height="65px" xmlns="http://www.w3.org/2000/svg">
  <defs>
    <linearGradient gradientUnits="userSpaceOnUse" x1="239.5" y1="0" x2="239.5" y2="63.7" id="LinearGradient99">
      <stop id="Stop100" stop-color="#106eff" offset="0" />
      <stop id="Stop101" stop-color="#106eff" stop-opacity="0" offset="1" />
    </linearGradient>
  </defs>
  <g transform="matrix(1 0 0 1 -59 -50 )">
    <path d="M 0.718614718614731 64  L 3.31601731601731 48.8744588744588  C 3.31601731601731 48.8744588744588  18.9004329004329 14.6753246753245  46.1731601731602 17.7056277056276  C 55.3224917789078 18.7222201062663  64.0962353053482 24.1289067036392  71.8296982102401 24.5595138180364  C 78.5842189244812 24.9356124312534  84.545158073141 20.3299588912114  89.2696393975194 21.164863682167  C 91.9449219427869 21.6376364715689  95.8222383239652 17.184964150622  101.507929299427 14.3255672581708  C 108.553254130287 10.782395458189  117.304347826087 8.61471861471864  117.304347826087 8.61471861471864  C 117.304347826087 8.61471861471864  127.488050479668 4.72849508349428  139.202864942104 7.42381259436496  C 150.955936154444 10.1279321300783  164.250135724465 19.4108551451826  170.347826086957 17.7056277056276  C 170.96725662926 17.532403108306  206.869565217391 17.7056277056276  206.869565217391 17.7056277056276  C 206.869565217391 17.7056277056276  223.060150404789 19.1955645295626  232.666666666667 27.1014492753623  C 250.559892612756 41.8270561659383  287.287119286367 58.3982683982683  298.554112554113 58.3982683982683  C 315.87012987013 58.3982683982683  363.489177489177 44.1125541125541  363.489177489177 44.1125541125541  L 435.350649350649 2.12121212121212  L 449.565003863292 0.953365298108565  L 478 8.61471861471864  L 478 64  L 0.718614718614731 64  Z " fill-rule="nonzero" fill="url(#LinearGradient99)" stroke="none" transform="matrix(1 0 0 1 59 50 )" />
  </g>
</svg>