<?xml version="1.0" encoding="utf-8"?>
<svg version="1.1" xmlns:xlink="http://www.w3.org/1999/xlink" width="468px" height="94px" xmlns="http://www.w3.org/2000/svg">
  <defs>
    <linearGradient gradientUnits="userSpaceOnUse" x1="234" y1="23.5" x2="234" y2="91.18" id="LinearGradient96">
      <stop id="Stop97" stop-color="#00ddff" offset="0" />
      <stop id="Stop98" stop-color="#00ddff" stop-opacity="0" offset="1" />
    </linearGradient>
  </defs>
  <g transform="matrix(1 0 0 1 -65 -97 )">
    <path d="M 1 94  L 0 37.2608695652174  C 0 37.2608695652174  42.463768115942 55.6304347826086  72.463768115942 62.1304347826086  C 102.463768115942 68.6304347826086  143.565217391304 75.6449275362319  169.565217391304 73.1449275362319  C 179.925697700992 72.1487275064542  189.366508926374 63.1347560778472  201.343886046331 55.057119424383  C 219.424169943084 42.8636347869072  239.448426809599 30.2463768115941  246.666666666667 30.2463768115941  C 255.944628785098 30.2463768115941  267.514087853338 24.6046427019963  286.61311883098 32.6413109044289  C 292.216535309595 34.9991686979155  300.055025327688 40.7480777020096  307.086956521739 45.0579710144928  C 307.459449772943 45.2862733297466  325.677776070653 52.1449109608656  331.995923037776 53.7306737049727  C 343.41881524146 56.5976530552172  352.33246778531 56.2377774555124  369.826086956522 53.057119424383  C 369.969899716453 53.03097164985  377.738382843137 52.7126710008498  388.059035523655 48.3157034471642  C 393.440266696656 46.0231063024864  399.51533653194 39.7091225928638  405.565217391304 37.9710144927537  C 415.884161251425 35.006420590033  428.115942028986 20.6811594202898  428.115942028986 20.6811594202898  L 445.101498575711 8.83654125452787  L 468 0  L 468 94  L 1 94  Z " fill-rule="nonzero" fill="url(#LinearGradient96)" stroke="none" transform="matrix(1 0 0 1 65 97 )" />
  </g>
</svg>