<?xml version="1.0" encoding="utf-8"?>
<svg version="1.1" xmlns:xlink="http://www.w3.org/1999/xlink" width="479px" height="61px" xmlns="http://www.w3.org/2000/svg">
  <g transform="matrix(1 0 0 1 -60 -59 )">
    <path d="M 0.666666666666657 50.2325581395348  C 0.666666666666657 50.2325581395348  30.0413436692507 31.9276485788112  59.1111111111111 43.5555555555554  C 88.1808785529716 55.1834625322997  90.5891472868217 55.2713178294573  114.232558139535 46.7441860465116  C 137.875968992248 38.2170542635658  177.333333333333 34.3410852713178  177.333333333333 34.3410852713178  C 177.333333333333 34.3410852713178  205.002583979328 16.1860465116279  239.111111111111 38.6666666666666  C 273.219638242894 61.1472868217054  278.961240310078 57.1937984496124  301.054263565891 57.5968992248062  C 323.147286821705 58  336.713178294574 56.4341085271317  376.635658914729 34.3410852713178  C 416.558139534884 12.2480620155038  427.023255813954 -4.80620155038764  453.37984496124 2.17054263565888  C 479.736434108527 9.14728682170539  474.697674418605 9.14728682170539  474.697674418605 9.14728682170539  " stroke-width="2" stroke="#116cfa" fill="none" transform="matrix(1 0 0 1 61 60 )" />
  </g>
</svg>