<?xml version="1.0" encoding="utf-8"?>
<svg version="1.1" xmlns:xlink="http://www.w3.org/1999/xlink" width="764px" height="65px" xmlns="http://www.w3.org/2000/svg">
  <g transform="matrix(1 0 0 1 -2 -1 )">
    <path d="M 0.799950744115677 40.5736434108527  C 0.799950744115677 40.5736434108527  63.0183419531131 22.7441860465116  91.2994288662937 30.1085271317829  C 119.580515779474 37.4728682170543  168.939067967295 57.4110429447876  168.939067967295 57.4110429447876  C 168.939067967295 57.4110429447876  187.051108843777 72.3565891472867  230.684785795541 45.2248062015503  C 274.318462747306 18.0930232558139  286.43892856724 6.07751937984494  309.871829152447 19.6434108527131  C 333.304729737654 33.2093023255813  352.293459522218 50.6511627906978  374.1102979981 47.937984496124  C 395.927136473982 45.2248062015503  407.04705853116 29.3087742515168  452.230789935311 19.6434108527131  C 565.358645636021 -4.55604771113429  662.745617589878 0.22977418939373  683.932721612725 1.67614332103444  C 686.731546214911 1.8672092404311  760.718309859155 6.94366197183103  760.718309859155 6.94366197183103  " stroke-width="2" stroke="#00ddfd" fill="none" transform="matrix(1 0 0 1 3 2 )" />
  </g>
</svg>