<?xml version="1.0" encoding="utf-8"?>
<svg version="1.1" xmlns:xlink="http://www.w3.org/1999/xlink" width="154px" height="30px" xmlns="http://www.w3.org/2000/svg">
  <defs>
    <mask fill="white" id="clip743">
      <path d="M 0 30  L 0 0  L 145.786666666667 0  C 150.386133333333 0  154 1.88571428571428  154 4.28571428571429  L 154 25.7142857142857  C 154 28.1142857142857  150.386133333333 30  145.786666666667 30  L 94.72115942029 30  L 0 30  Z " fill-rule="evenodd" />
    </mask>
  </defs>
  <g transform="matrix(1 0 0 1 -225 -229 )">
    <path d="M 0 30  L 0 0  L 145.786666666667 0  C 150.386133333333 0  154 1.88571428571428  154 4.28571428571429  L 154 25.7142857142857  C 154 28.1142857142857  150.386133333333 30  145.786666666667 30  L 94.72115942029 30  L 0 30  Z " fill-rule="nonzero" fill="#f2f2f2" stroke="none" fill-opacity="0" transform="matrix(1 0 0 1 225 229 )" />
    <path d="M 0 30  L 0 0  L 145.786666666667 0  C 150.386133333333 0  154 1.88571428571428  154 4.28571428571429  L 154 25.7142857142857  C 154 28.1142857142857  150.386133333333 30  145.786666666667 30  L 94.72115942029 30  L 0 30  Z " stroke-width="2" stroke="#116dfd" fill="none" transform="matrix(1 0 0 1 225 229 )" mask="url(#clip743)" />
  </g>
</svg>