<?xml version="1.0" encoding="utf-8"?>
<svg version="1.1" xmlns:xlink="http://www.w3.org/1999/xlink" width="148px" height="30px" xmlns="http://www.w3.org/2000/svg">
  <defs>
    <mask fill="white" id="clip742">
      <path d="M 0 25.7142857142857  L 0 4.28571428571429  C 0 1.88571428571428  3.47306666666666 0  7.89333333333333 0  L 61.4169547325059 0  L 148 0  L 148 30  L 7.89333333333333 30  C 3.47306666666666 30  0 28.1142857142857  0 25.7142857142857  Z " fill-rule="evenodd" />
    </mask>
  </defs>
  <g transform="matrix(1 0 0 1 -78 -229 )">
    <path d="M 0 25.7142857142857  L 0 4.28571428571429  C 0 1.88571428571428  3.47306666666666 0  7.89333333333333 0  L 61.4169547325059 0  L 148 0  L 148 30  L 7.89333333333333 30  C 3.47306666666666 30  0 28.1142857142857  0 25.7142857142857  Z " fill-rule="nonzero" fill="#1767df" stroke="none" transform="matrix(1 0 0 1 78 229 )" />
    <path d="M 0 25.7142857142857  L 0 4.28571428571429  C 0 1.88571428571428  3.47306666666666 0  7.89333333333333 0  L 61.4169547325059 0  L 148 0  L 148 30  L 7.89333333333333 30  C 3.47306666666666 30  0 28.1142857142857  0 25.7142857142857  Z " stroke-width="2" stroke="#116dfd" fill="none" transform="matrix(1 0 0 1 78 229 )" mask="url(#clip742)" />
  </g>
</svg>