<?xml version="1.0" encoding="utf-8"?>
<svg version="1.1" xmlns:xlink="http://www.w3.org/1999/xlink" width="418px" height="418px" xmlns="http://www.w3.org/2000/svg">
  <g transform="matrix(1 0 0 1 -411 -423 )">
    <path d="M 620 424.5  C 736.2 424.5  827.5 515.8  827.5 632  C 827.5 748.2  736.2 839.5  620 839.5  C 503.8 839.5  412.5 748.2  412.5 632  C 412.5 515.8  503.8 424.5  620 424.5  Z " fill-rule="nonzero" fill="#43b9fe" stroke="none" fill-opacity="0.0980392156862745" />
    <path d="M 620 424  C 736.48 424  828 515.52  828 632  C 828 748.48  736.48 840  620 840  C 503.52 840  412 748.48  412 632  C 412 515.52  503.52 424  620 424  Z " stroke-width="2" stroke-dasharray="6,2" stroke="#43b9fe" fill="none" stroke-opacity="0.498039215686275" />
  </g>
</svg>