<?xml version="1.0" encoding="utf-8"?>
<svg version="1.1" xmlns:xlink="http://www.w3.org/1999/xlink" width="204px" height="50px" xmlns="http://www.w3.org/2000/svg">
  <defs>
    <mask fill="white" id="clip1008">
      <path d="M 25 50  C 11 50  0 39  0 25  C 0 11  11 0  25 0  L 179 0  C 193 0  204 11  204 25  C 204 39  193 50  179 50  L 165.940054495913 50  L 25 50  Z " fill-rule="evenodd" />
    </mask>
  </defs>
  <g>
    <path d="M 25 50  C 11 50  0 39  0 25  C 0 11  11 0  25 0  L 179 0  C 193 0  204 11  204 25  C 204 39  193 50  179 50  L 165.940054495913 50  L 25 50  Z " fill-rule="nonzero" fill="#1c5995" stroke="none" />
    <path d="M 25 50  C 11 50  0 39  0 25  C 0 11  11 0  25 0  L 179 0  C 193 0  204 11  204 25  C 204 39  193 50  179 50  L 165.940054495913 50  L 25 50  Z " stroke-width="2" stroke="#01f9ff" fill="none" mask="url(#clip1008)" />
  </g>
</svg>