<?xml version="1.0" encoding="utf-8"?>
<svg version="1.1" xmlns:xlink="http://www.w3.org/1999/xlink" width="50px" height="50px" xmlns="http://www.w3.org/2000/svg">
  <g transform="matrix(1 0 0 1 -95 -72 )">
    <path d="M 120 72  C 134 72  145 83  145 97  C 145 111  134 122  120 122  C 106 122  95 111  95 97  C 95 83  106 72  120 72  Z " fill-rule="nonzero" fill="#183173" stroke="none" />
    <path d="M 120 72.5  C 133.72 72.5  144.5 83.28  144.5 97  C 144.5 110.72  133.72 121.5  120 121.5  C 106.28 121.5  95.5 110.72  95.5 97  C 95.5 83.28  106.28 72.5  120 72.5  Z " stroke-width="1" stroke="#10bee5" fill="none" />
  </g>
</svg>