<?xml version="1.0" encoding="utf-8"?>
<svg version="1.1" xmlns:xlink="http://www.w3.org/1999/xlink" width="50px" height="50px" xmlns="http://www.w3.org/2000/svg">
  <g transform="matrix(1 0 0 1 26 0 )">
    <path d="M -1 0  C 13 0  24 11  24 25  C 24 39  13 50  -1 50  C -15 50  -26 39  -26 25  C -26 11  -15 0  -1 0  Z " fill-rule="nonzero" fill="#183173" stroke="none" />
    <path d="M -1 0.5  C 12.72 0.5  23.5 11.28  23.5 25  C 23.5 38.72  12.72 49.5  -1 49.5  C -14.72 49.5  -25.5 38.72  -25.5 25  C -25.5 11.28  -14.72 0.5  -1 0.5  Z " stroke-width="1" stroke="#0068c9" fill="none" />
  </g>
</svg>