<?xml version="1.0" encoding="utf-8"?>
<svg version="1.1" xmlns:xlink="http://www.w3.org/1999/xlink" width="200px" height="34px" xmlns="http://www.w3.org/2000/svg">
  <g transform="matrix(1 0 0 1 -358 -307 )">
    <path d="M 359 309  A 1 1 0 0 1 360 308 L 556 308  A 1 1 0 0 1 557 309 L 557 339  A 1 1 0 0 1 556 340 L 360 340  A 1 1 0 0 1 359 339 L 359 309  Z " fill-rule="nonzero" fill="#101a3d" stroke="none" fill-opacity="0.137254901960784" />
    <path d="M 358.5 309  A 1.5 1.5 0 0 1 360 307.5 L 556 307.5  A 1.5 1.5 0 0 1 557.5 309 L 557.5 339  A 1.5 1.5 0 0 1 556 340.5 L 360 340.5  A 1.5 1.5 0 0 1 358.5 339 L 358.5 309  Z " stroke-width="1" stroke="#09afdf" fill="none" stroke-opacity="0.647058823529412" />
  </g>
</svg>