<?xml version="1.0" encoding="utf-8"?>
<svg version="1.1" xmlns:xlink="http://www.w3.org/1999/xlink" width="24px" height="24px" xmlns="http://www.w3.org/2000/svg">
  <g transform="matrix(1 0 0 1 -514 0 )">
    <path d="M 526 1  C 532.16 1  537 5.84  537 12  C 537 18.16  532.16 23  526 23  C 519.84 23  515 18.16  515 12  C 515 5.84  519.84 1  526 1  Z " fill-rule="nonzero" fill="#999999" stroke="none" />
    <path d="M 526 1  C 532.16 1  537 5.84  537 12  C 537 18.16  532.16 23  526 23  C 519.84 23  515 18.16  515 12  C 515 5.84  519.84 1  526 1  Z " stroke-width="2" stroke="#ffffff" fill="none" />
  </g>
</svg>