<?xml version="1.0" encoding="utf-8"?>
<svg version="1.1" xmlns:xlink="http://www.w3.org/1999/xlink" width="451px" height="147px" xmlns="http://www.w3.org/2000/svg">
  <g transform="matrix(1 0 0 1 -28 -105 )">
    <path d="M 29 109  A 3 3 0 0 1 32 106 L 475 106  A 3 3 0 0 1 478 109 L 478 248  A 3 3 0 0 1 475 251 L 32 251  A 3 3 0 0 1 29 248 L 29 109  Z " fill-rule="nonzero" fill="#ffffff" stroke="none" fill-opacity="0" />
    <path d="M 28.5 109  A 3.5 3.5 0 0 1 32 105.5 L 475 105.5  A 3.5 3.5 0 0 1 478.5 109 L 478.5 248  A 3.5 3.5 0 0 1 475 251.5 L 32 251.5  A 3.5 3.5 0 0 1 28.5 248 L 28.5 109  Z " stroke-width="1" stroke="#00ccff" fill="none" stroke-opacity="0.2" />
  </g>
</svg>