<?xml version="1.0" encoding="utf-8"?>
<svg version="1.1" xmlns:xlink="http://www.w3.org/1999/xlink" width="362px" height="32px" xmlns="http://www.w3.org/2000/svg">
  <g transform="matrix(1 0 0 1 -82 -4 )">
    <path d="M 83 6  A 1 1 0 0 1 84 5 L 442 5  A 1 1 0 0 1 443 6 L 443 34  A 1 1 0 0 1 442 35 L 84 35  A 1 1 0 0 1 83 34 L 83 6  Z " fill-rule="nonzero" fill="#0f4378" stroke="none" fill-opacity="0" />
    <path d="M 82.5 6  A 1.5 1.5 0 0 1 84 4.5 L 442 4.5  A 1.5 1.5 0 0 1 443.5 6 L 443.5 34  A 1.5 1.5 0 0 1 442 35.5 L 84 35.5  A 1.5 1.5 0 0 1 82.5 34 L 82.5 6  Z " stroke-width="1" stroke="#00ccff" fill="none" stroke-opacity="0.2" />
  </g>
</svg>