<?xml version="1.0" encoding="utf-8"?>
<svg version="1.1" xmlns:xlink="http://www.w3.org/1999/xlink" width="13px" height="23px" xmlns="http://www.w3.org/2000/svg">
  <g transform="matrix(1 0 0 1 -217 -376 )">
    <path d="M 12.7766323024055 10.9699398797595  C 12.9255441008018 11.123580494322  13 11.3002672010688  13 11.5  C 13 11.6997327989312  12.9255441008018 11.876419505678  12.7766323024055 12.0300601202405  L 2.36769759450172 22.7695390781563  C 2.21878579610538 22.9231796927188  2.0475372279496 23  1.85395189003436 23  C 1.66036655211913 23  1.48911798396334 22.9231796927188  1.34020618556701 22.7695390781563  L 0.223367697594502 21.6172344689379  C 0.0744558991981673 21.4635938543754  0 21.2869071476286  0 21.0871743486974  C 0 20.8874415497662  0.0744558991981673 20.7107548430194  0.223367697594502 20.5571142284569  L 9.00171821305842 11.5  L 0.223367697594502 2.44288577154309  C 0.0744558991981673 2.28924515698063  0 2.1125584502338  0 1.91282565130261  C 0 1.71309285237141  0.0744558991981673 1.53640614562458  0.223367697594502 1.38276553106212  L 1.34020618556701 0.230460921843688  C 1.48911798396334 0.0768203072812284  1.66036655211913 0  1.85395189003436 0  C 2.0475372279496 0  2.21878579610538 0.0768203072812284  2.36769759450172 0.230460921843688  L 12.7766323024055 10.9699398797595  Z " fill-rule="nonzero" fill="#d4d4d4" stroke="none" transform="matrix(1 0 0 1 217 376 )" />
  </g>
</svg>