<?xml version="1.0" encoding="utf-8"?>
<svg version="1.1" xmlns:xlink="http://www.w3.org/1999/xlink" width="100px" height="30px" xmlns="http://www.w3.org/2000/svg">
  <defs>
    <linearGradient gradientUnits="userSpaceOnUse" x1="28" y1="73" x2="128" y2="73" id="LinearGradient122">
      <stop id="Stop123" stop-color="#00bdec" stop-opacity="0.8" offset="0" />
      <stop id="Stop124" stop-color="#1591e3" stop-opacity="0.898039215686275" offset="1" />
    </linearGradient>
  </defs>
  <g transform="matrix(1 0 0 1 -28 -58 )">
    <path d="M 29 60  A 1 1 0 0 1 30 59 L 126 59  A 1 1 0 0 1 127 60 L 127 86  A 1 1 0 0 1 126 87 L 30 87  A 1 1 0 0 1 29 86 L 29 60  Z " fill-rule="nonzero" fill="url(#LinearGradient122)" stroke="none" />
    <path d="M 28.5 60  A 1.5 1.5 0 0 1 30 58.5 L 126 58.5  A 1.5 1.5 0 0 1 127.5 60 L 127.5 86  A 1.5 1.5 0 0 1 126 87.5 L 30 87.5  A 1.5 1.5 0 0 1 28.5 86 L 28.5 60  Z " stroke-width="1" stroke="#00ffff" fill="none" stroke-opacity="0.8" />
  </g>
</svg>