<?xml version="1.0" encoding="utf-8"?>
<svg version="1.1" xmlns:xlink="http://www.w3.org/1999/xlink" width="100px" height="30px" xmlns="http://www.w3.org/2000/svg">
  <g transform="matrix(1 0 0 1 -28 -265 )">
    <path d="M 29 267  A 1 1 0 0 1 30 266 L 126 266  A 1 1 0 0 1 127 267 L 127 293  A 1 1 0 0 1 126 294 L 30 294  A 1 1 0 0 1 29 293 L 29 267  Z " fill-rule="nonzero" fill="#11b0df" stroke="none" fill-opacity="0" />
    <path d="M 28.5 267  A 1.5 1.5 0 0 1 30 265.5 L 126 265.5  A 1.5 1.5 0 0 1 127.5 267 L 127.5 293  A 1.5 1.5 0 0 1 126 294.5 L 30 294.5  A 1.5 1.5 0 0 1 28.5 293 L 28.5 267  Z " stroke-width="1" stroke="#00ccff" fill="none" stroke-opacity="0.2" />
  </g>
</svg>