<?xml version="1.0" encoding="utf-8"?>
<svg version="1.1" xmlns:xlink="http://www.w3.org/1999/xlink" width="478px" height="238px" xmlns="http://www.w3.org/2000/svg">
  <defs>
    <mask fill="white" id="clip367">
      <path d="M 0 236.434210526316  L 0 0  L 425.73576309795 0  L 466.567198177677 18.59375  L 477.419203529413 207.387376574002  L 458.400911161731 228.996710526316  L 413.486332574032 237.804276315789  L 0 236.434210526316  Z " fill-rule="evenodd" />
    </mask>
  </defs>
  <g transform="matrix(1 0 0 1 -76 -483 )">
    <path d="M 0 236.434210526316  L 0 0  L 425.73576309795 0  L 466.567198177677 18.59375  L 477.419203529413 207.387376574002  L 458.400911161731 228.996710526316  L 413.486332574032 237.804276315789  L 0 236.434210526316  Z " fill-rule="nonzero" fill="#ffffff" stroke="none" fill-opacity="0" transform="matrix(1 0 0 1 76 483 )" />
    <path d="M 0 236.434210526316  L 0 0  L 425.73576309795 0  L 466.567198177677 18.59375  L 477.419203529413 207.387376574002  L 458.400911161731 228.996710526316  L 413.486332574032 237.804276315789  L 0 236.434210526316  Z " stroke-width="2" stroke="#0792b8" fill="none" stroke-opacity="0.898039215686275" transform="matrix(1 0 0 1 76 483 )" mask="url(#clip367)" />
  </g>
</svg>