<?xml version="1.0" encoding="utf-8"?>
<svg version="1.1" xmlns:xlink="http://www.w3.org/1999/xlink" width="1585px" height="28px" xmlns="http://www.w3.org/2000/svg">
  <defs>
    <filter x="39px" y="174px" width="1585px" height="28px" filterUnits="userSpaceOnUse" id="filter411">
      <feOffset dx="5" dy="5" in="SourceAlpha" result="shadowOffsetInner" />
      <feGaussianBlur stdDeviation="2.5" in="shadowOffsetInner" result="shadowGaussian" />
      <feComposite in2="shadowGaussian" operator="atop" in="SourceAlpha" result="shadowComposite" />
      <feColorMatrix type="matrix" values="0 0 0 0 0  0 0 0 0 0  0 0 0 0 0  0 0 0 0.349019607843137 0  " in="shadowComposite" />
    </filter>
    <g id="widget412">
      <path d="M 0.333333333333314 11.3333333333334  L 48.3333333333333 0.666666666666629  L 103 2.66666666666663  L 165 6.66666666666663  L 227.666666666667 5.33333333333337  L 285 14.6666666666666  L 349.666666666667 12.6666666666666  L 409.666666666667 16.6666666666666  L 465.666666666667 8.66666666666663  L 537.666666666667 14.6666666666666  L 596.333333333333 8.66666666666663  L 660.333333333333 12.6666666666666  L 723 11.3333333333334  L 787 16.6666666666666  L 844.333333333333 6.66666666666663  L 987.151515151515 14.6666666666666  L 1078.06060606061 8.50617258633076  L 1250.0303030303 12.6666666666666  L 1330.35309435004 8.50617258633076  L 1415.12264231988 9.57454785651203  L 1497.70646766169 2.50617258633076  L 1573.82587064677 8.50617258633076  " stroke-width="1" stroke="#0084d2" fill="none" transform="matrix(1 0 0 1 39 174 )" />
    </g>
  </defs>
  <g transform="matrix(1 0 0 1 -39 -174 )">
    <use xlink:href="#widget412" filter="url(#filter411)" />
    <use xlink:href="#widget412" />
  </g>
</svg>