<?xml version="1.0" encoding="utf-8"?>
<svg version="1.1" xmlns:xlink="http://www.w3.org/1999/xlink" width="520px" height="236px" xmlns="http://www.w3.org/2000/svg">
  <defs>
    <mask fill="white" id="clip371">
      <path d="M 0 234.447368421053  L 0 0  L 463.143507972665 0  L 507.56264236902 18.4375  L 519.368171203545 205.644625510355  L 498.678815489749 227.072368421053  L 449.817767653759 235.805921052632  L 0 234.447368421053  Z " fill-rule="evenodd" />
    </mask>
  </defs>
  <g transform="matrix(1 0 0 1 22 -326 )">
    <path d="M 0 234.447368421053  L 0 0  L 463.143507972665 0  L 507.56264236902 18.4375  L 519.368171203545 205.644625510355  L 498.678815489749 227.072368421053  L 449.817767653759 235.805921052632  L 0 234.447368421053  Z " fill-rule="nonzero" fill="#ffffff" stroke="none" fill-opacity="0" transform="matrix(1 0 0 1 -22 326 )" />
    <path d="M 0 234.447368421053  L 0 0  L 463.143507972665 0  L 507.56264236902 18.4375  L 519.368171203545 205.644625510355  L 498.678815489749 227.072368421053  L 449.817767653759 235.805921052632  L 0 234.447368421053  Z " stroke-width="2" stroke="#0792b8" fill="none" stroke-opacity="0.698039215686274" transform="matrix(1 0 0 1 -22 326 )" mask="url(#clip371)" />
  </g>
</svg>