<?xml version="1.0" encoding="utf-8"?>
<svg version="1.1" xmlns:xlink="http://www.w3.org/1999/xlink" width="150px" height="150px" xmlns="http://www.w3.org/2000/svg">
  <defs>
    <mask fill="white" id="clip1063">
      <path d="M 1.53162468269441 59.9202842123757  L 3.47748319186357 60.3196804759632  C 2.54364995771416 65.0505443470506  2.05479452054795 69.9586100684571  2.05479452054795 75  C 2.05479452054795 115.849315068493  34.1506849315069 147.945205479452  75 147.945205479452  C 115.849315068493 147.945205479452  147.945205479452 115.849315068493  147.945205479452 75  C 147.945205479452 34.1506849315069  115.849315068493 2.05479452054795  75 2.05479452054795  C 63.5745429442209 2.05479452054795  52.8338730422319 4.56568075111136  43.2887464639434 9.07669878528603  L 42.4884625747369 7.41301949157871  C 52.6320531591623 2.53362226993481  63.7438484733445 0  75 0  C 116.42135623731 0  150 33.5786437626905  150 75  C 150 116.42135623731  116.42135623731 150  75 150  C 33.5786437626905 150  0 116.42135623731  0 75  C 0 69.9346034616313  0.513161480691552 64.8822369325338  1.53162468269441 59.9202842123757  Z " fill-rule="evenodd" />
    </mask>
  </defs>
  <g transform="matrix(1 0 0 1 -214 -230 )">
    <path d="M 1.53162468269441 59.9202842123757  L 3.47748319186357 60.3196804759632  C 2.54364995771416 65.0505443470506  2.05479452054795 69.9586100684571  2.05479452054795 75  C 2.05479452054795 115.849315068493  34.1506849315069 147.945205479452  75 147.945205479452  C 115.849315068493 147.945205479452  147.945205479452 115.849315068493  147.945205479452 75  C 147.945205479452 34.1506849315069  115.849315068493 2.05479452054795  75 2.05479452054795  C 63.5745429442209 2.05479452054795  52.8338730422319 4.56568075111136  43.2887464639434 9.07669878528603  L 42.4884625747369 7.41301949157871  C 52.6320531591623 2.53362226993481  63.7438484733445 0  75 0  C 116.42135623731 0  150 33.5786437626905  150 75  C 150 116.42135623731  116.42135623731 150  75 150  C 33.5786437626905 150  0 116.42135623731  0 75  C 0 69.9346034616313  0.513161480691552 64.8822369325338  1.53162468269441 59.9202842123757  Z " fill-rule="nonzero" fill="#ffffff" stroke="none" fill-opacity="0" transform="matrix(1 0 0 1 214 230 )" />
    <path d="M 1.53162468269441 59.9202842123757  L 3.47748319186357 60.3196804759632  C 2.54364995771416 65.0505443470506  2.05479452054795 69.9586100684571  2.05479452054795 75  C 2.05479452054795 115.849315068493  34.1506849315069 147.945205479452  75 147.945205479452  C 115.849315068493 147.945205479452  147.945205479452 115.849315068493  147.945205479452 75  C 147.945205479452 34.1506849315069  115.849315068493 2.05479452054795  75 2.05479452054795  C 63.5745429442209 2.05479452054795  52.8338730422319 4.56568075111136  43.2887464639434 9.07669878528603  L 42.4884625747369 7.41301949157871  C 52.6320531591623 2.53362226993481  63.7438484733445 0  75 0  C 116.42135623731 0  150 33.5786437626905  150 75  C 150 116.42135623731  116.42135623731 150  75 150  C 33.5786437626905 150  0 116.42135623731  0 75  C 0 69.9346034616313  0.513161480691552 64.8822369325338  1.53162468269441 59.9202842123757  Z " stroke-width="4" stroke="#00d5ff" fill="none" stroke-opacity="0.498039215686275" transform="matrix(1 0 0 1 214 230 )" mask="url(#clip1063)" />
  </g>
</svg>