<?xml version="1.0" encoding="utf-8"?>
<svg version="1.1" xmlns:xlink="http://www.w3.org/1999/xlink" width="124px" height="130px" xmlns="http://www.w3.org/2000/svg">
  <defs>
    <linearGradient gradientUnits="userSpaceOnUse" x1="62" y1="32.5" x2="62" y2="126.1" id="LinearGradient1067">
      <stop id="Stop1068" stop-color="#00ddff" offset="0" />
      <stop id="Stop1069" stop-color="#006aff" offset="1" />
    </linearGradient>
  </defs>
  <g transform="matrix(1 0 0 1 -844 -240 )">
    <path d="M 65.4357165859659 0.00295000229927026  L 65.2880468047806 15.5455799843602  C 65.1316178624081 15.5441798010097  64.9749952372664 15.5434782608696  64.8181818181818 15.5434782608696  C 37.2 15.5434782608696  15.5 37.3043478260869  15.5 65  C 15.5 92.6956521739131  37.2 114.45652173913  64.8181818181818 114.45652173913  C 84.787289155794 114.45652173913  101.662431201528 103.080160345666  109.478095452807 86.3096831424472  L 123.34837578243 92.9279511789536  C 112.603425348411 115.573264140217  89.8261666050341 130  64.8181818181818 130  C 29.0200884882404 130  0 100.898508739001  0 65  C 0 29.1014912609984  29.0200884882404 0  64.8181818181818 0  C 65.0240302441681 0  65.2298775023386 0.000983345256995365  65.4357165859659 0.00295000229927026  Z " fill-rule="nonzero" fill="url(#LinearGradient1067)" stroke="none" transform="matrix(1 0 0 1 844 240 )" />
  </g>
</svg>