<?xml version="1.0" encoding="utf-8"?>
<svg version="1.1" xmlns:xlink="http://www.w3.org/1999/xlink" width="146px" height="146px" xmlns="http://www.w3.org/2000/svg">
  <defs>
    <mask fill="white" id="clip1082">
      <path d="M 1.49078135782256 58.3224099667124  L 3.38475030674721 58.7111556632709  C 2.47581929217512 63.3158631644625  2 68.0930471332983  2 73  C 2 112.76  33.24 144  73 144  C 112.76 144  144 112.76  144 73  C 144 33.24  112.76 2  73 2  C 61.8792217990417 2  51.4249697611057 4.44392926441506  42.1343798915715 8.83465348434507  L 41.3554369060773 7.21533897180328  C 51.2285317415846 2.46605900940321  62.0440125140553 0  73 0  C 113.316786737648 0  146 32.6832132623521  146 73  C 146 113.316786737648  113.316786737648 146  73 146  C 32.6832132623521 146  0 113.316786737648  0 73  C 0 68.0696807026545  0.499477174539777 63.1520439476662  1.49078135782256 58.3224099667124  Z " fill-rule="evenodd" />
    </mask>
  </defs>
  <g transform="matrix(1 0 0 1 -218 -407 )">
    <path d="M 1.49078135782256 58.3224099667124  L 3.38475030674721 58.7111556632709  C 2.47581929217512 63.3158631644625  2 68.0930471332983  2 73  C 2 112.76  33.24 144  73 144  C 112.76 144  144 112.76  144 73  C 144 33.24  112.76 2  73 2  C 61.8792217990417 2  51.4249697611057 4.44392926441506  42.1343798915715 8.83465348434507  L 41.3554369060773 7.21533897180328  C 51.2285317415846 2.46605900940321  62.0440125140553 0  73 0  C 113.316786737648 0  146 32.6832132623521  146 73  C 146 113.316786737648  113.316786737648 146  73 146  C 32.6832132623521 146  0 113.316786737648  0 73  C 0 68.0696807026545  0.499477174539777 63.1520439476662  1.49078135782256 58.3224099667124  Z " fill-rule="nonzero" fill="#ffffff" stroke="none" fill-opacity="0" transform="matrix(1 0 0 1 218 407 )" />
    <path d="M 1.49078135782256 58.3224099667124  L 3.38475030674721 58.7111556632709  C 2.47581929217512 63.3158631644625  2 68.0930471332983  2 73  C 2 112.76  33.24 144  73 144  C 112.76 144  144 112.76  144 73  C 144 33.24  112.76 2  73 2  C 61.8792217990417 2  51.4249697611057 4.44392926441506  42.1343798915715 8.83465348434507  L 41.3554369060773 7.21533897180328  C 51.2285317415846 2.46605900940321  62.0440125140553 0  73 0  C 113.316786737648 0  146 32.6832132623521  146 73  C 146 113.316786737648  113.316786737648 146  73 146  C 32.6832132623521 146  0 113.316786737648  0 73  C 0 68.0696807026545  0.499477174539777 63.1520439476662  1.49078135782256 58.3224099667124  Z " stroke-width="4" stroke="#00d5ff" fill="none" stroke-opacity="0.498039215686275" transform="matrix(1 0 0 1 218 407 )" mask="url(#clip1082)" />
  </g>
</svg>