<?xml version="1.0" encoding="utf-8"?>
<svg version="1.1" xmlns:xlink="http://www.w3.org/1999/xlink" width="89px" height="124px" xmlns="http://www.w3.org/2000/svg">
  <defs>
    <linearGradient gradientUnits="userSpaceOnUse" x1="44.5" y1="1.2276" x2="44.5" y2="122.76" id="LinearGradient1087">
      <stop id="Stop1088" stop-color="#ec3c3c" offset="0" />
      <stop id="Stop1089" stop-color="#eaa215" offset="1" />
    </linearGradient>
  </defs>
  <g transform="matrix(1 0 0 1 -1477 -219 )">
    <path d="M 79.5452882302584 123.708997320983  L 61.1540973203382 114.572888714357  C 65.6521270578195 105.781877049549  68.1702127659574 95.79370414398  68.1702127659574 85.1343283582089  C 68.1702127659574 48.8597014925373  39.0085106382979 20.3582089552239  1.8936170212766 20.3582089552239  C 1.49020822951521 20.3582089552239  1.08773902197888 20.3615761007043  0.686236768041586 20.3682863477778  L 0.306790864956545 0.0141276359363949  C 0.835678054243668 0.00470940735481439  1.36464205111493 0  1.8936170212766 0  C 50.0011439533461 0  89 38.1159371188828  89 85.1343283582089  C 89 98.5407751677719  85.7605074195024 111.757714715308  79.5452882302584 123.708997320983  Z " fill-rule="nonzero" fill="url(#LinearGradient1087)" stroke="none" transform="matrix(1 0 0 1 1477 219 )" />
  </g>
</svg>