<?xml version="1.0" encoding="utf-8"?>
<svg version="1.1" xmlns:xlink="http://www.w3.org/1999/xlink" width="794px" height="69px" xmlns="http://www.w3.org/2000/svg">
  <g transform="matrix(1 0 0 1 1 -127 )">
    <path d="M 0.910505836575908 39  C 0.910505836575908 39  13.5028206275874 58.7543812101201  34.5 64  C 79.0225398076551 75.1228402275337  85.1280097395051 29.33820317187  140.571428571429 30.203007518797  C 165.137945868546 30.5861951250991  220.101244101244 54.3178893178892  247.428571428571 50.7142857142857  C 275.155373989218 48.2608322608322  304.362821285204 23.3477861715909  350.857142857143 22.1428571428572  C 396.560802792094 20.9584185982537  405.506887358828 35.710738347805  450.857142857143 34.7142857142858  C 464.51912239143 34.4140996329409  496.67790249498 19.0875926817802  556.586466165414 11.0300751879698  C 594.163113957071 5.97613167155285  628.911098155168 31.9884145316078  660.345864661654 30.203007518797  C 737.457843734769 25.8232623032425  791 0  791 0  " stroke-width="2" stroke="#ffdb35" fill="none" transform="matrix(1 0 0 1 0 128 )" />
  </g>
</svg>