<?xml version="1.0" encoding="utf-8"?>
<svg version="1.1" xmlns:xlink="http://www.w3.org/1999/xlink" width="467px" height="85px" xmlns="http://www.w3.org/2000/svg">
  <defs>
    <linearGradient gradientUnits="userSpaceOnUse" x1="233.5" y1="21.25" x2="233.5" y2="82.45" id="LinearGradient102">
      <stop id="Stop103" stop-color="#00ddff" offset="0" />
      <stop id="Stop104" stop-color="#00ddff" stop-opacity="0" offset="1" />
    </linearGradient>
  </defs>
  <g transform="matrix(1 0 0 1 -66 -122 )">
    <path d="M 0 85  L 0 53  C 0 53  46 33.5  76 40  C 106 46.5  141.429752066116 42.5  167.429752066116 40  C 180.527998053747 38.7405532704201  205.588039180143 5.41367652121372  226.107438016529 2.71074380165308  C 246.319017224825 0.0483588462409728  244.532947607769 1  250.487603305785 1  C 262.487603305785 1  273.5 18.5  304.5 37.5  C 312.585927222517 42.4558908783168  346.732457817897 35.6455718351398  365.776859504132 32.4628099173553  C 366.288885505476 32.377238478313  374.575236905038 29.5595737558082  375.107438016529 29.4628099173553  C 388.67863162337 26.9953201706569  411.241028016872 35.8763589481044  423.105589918946 35.3758671376834  C 435.282793373645 34.8621869316033  438 28  438 28  L 467 15  L 467 85  L 0 85  Z " fill-rule="nonzero" fill="url(#LinearGradient102)" stroke="none" transform="matrix(1 0 0 1 66 122 )" />
  </g>
</svg>