<?xml version="1.0" encoding="utf-8"?>
<svg version="1.1" xmlns:xlink="http://www.w3.org/1999/xlink" width="479px" height="67px" xmlns="http://www.w3.org/2000/svg">
  <defs>
    <linearGradient gradientUnits="userSpaceOnUse" x1="239.5" y1="0" x2="239.5" y2="65.66" id="LinearGradient105">
      <stop id="Stop106" stop-color="#106eff" offset="0" />
      <stop id="Stop107" stop-color="#106eff" stop-opacity="0" offset="1" />
    </linearGradient>
  </defs>
  <g transform="matrix(1 0 0 1 -59 -58 )">
    <path d="M 0.718614718614731 64  L 3.31601731601731 48.8744588744588  C 3.31601731601731 48.8744588744588  16.5785123966942 37.2341597796143  43.8512396694215 40.2644628099174  C 71.1239669421488 43.2947658402205  88.0661157024794 54.7272727272727  88.0661157024794 54.7272727272727  C 88.0661157024794 54.7272727272727  81.7890594254231 86.9696969696969  138.066115702479 44.1125541125541  C 149.696763517056 35.2553684691457  172.635794122913 38.5036022643562  181.04132231405 34.9533652981086  C 213.307508252035 21.3251192828669  218.231404958678 31.1735537190083  218.231404958678 31.1735537190083  C 218.231404958678 31.1735537190083  230.525715143081 32.3585780641178  240.132231404959 40.2644628099174  C 258.025457351048 54.9900697004935  287.287119286367 58.3982683982683  298.554112554113 58.3982683982683  C 315.87012987013 58.3982683982683  363.489177489177 44.1125541125541  363.489177489177 44.1125541125541  L 435.350649350649 2.12121212121212  L 449.565003863292 0.953365298108565  L 478 8.61471861471864  L 478 64  L 0.718614718614731 64  Z " fill-rule="nonzero" fill="url(#LinearGradient105)" stroke="none" transform="matrix(1 0 0 1 59 58 )" />
  </g>
</svg>