<?xml version="1.0" encoding="utf-8"?>
<svg version="1.1" xmlns:xlink="http://www.w3.org/1999/xlink" width="763px" height="129px" xmlns="http://www.w3.org/2000/svg">
  <defs>
    <linearGradient gradientUnits="userSpaceOnUse" x1="381.5" y1="32.25" x2="381.5" y2="125.13" id="LinearGradient108">
      <stop id="Stop109" stop-color="#00ddff" offset="0" />
      <stop id="Stop110" stop-color="#00ddff" stop-opacity="0" offset="1" />
    </linearGradient>
  </defs>
  <g transform="matrix(1 0 0 1 0 -1 )">
    <path d="M 0.971830985915517 129  L 3.71631205673759 42.3546099290779  C 3.71631205673759 42.3546099290779  58.4136449905105 22.5613824792727  95.7375886524823 31.7163120567375  C 133.061532314454 40.8712416342023  171.394366197183 63.4788732394367  191.112676056338 63.4788732394367  C 199.258325552634 63.4788732394367  217.297121386547 55.7444833293434  235.583658992985 44.9140177580252  C 261.563648560198 29.5269943309197  289.062125006647 9.9276123595798  298.154929577465 14.8873239436621  C 305.393262471955 18.8355055224748  318.516801559143 25.1390325823718  332.617021276596 33.3120567375887  C 348.69697031939 42.6326073797004  366.245112304963 53.4754835342004  381.253521126761 50.0985915492959  C 396.497309304443 46.6687392093174  410.399722127743 35.16372947486  436.75079943817 26.2544677020599  C 459.093908851362 18.7002941768021  491.230007119478 13.8554891453898  531.90780141844 8.56737588652481  C 608.78883212817 -1.42715810574002  672.057380619885 0.78109164359222  687.503732600644 2.34042915861477  C 689.868779430309 2.57918532884096  691.112676056338 2.73239436619724  691.112676056338 2.73239436619724  L 762.661971830986 8.56737588652481  L 761.112676056338 129  L 0.971830985915517 129  Z " fill-rule="nonzero" fill="url(#LinearGradient108)" stroke="none" transform="matrix(1 0 0 1 0 1 )" />
  </g>
</svg>