<?xml version="1.0" encoding="utf-8"?>
<svg version="1.1" xmlns:xlink="http://www.w3.org/1999/xlink" width="17px" height="18px" xmlns="http://www.w3.org/2000/svg">
  <g transform="matrix(1 0 0 1 -445 -78 )">
    <path d="M 16.6490666646785 2.96418141452982  L 16.006279054992 3.7302258576488  L 13.708145725635 1.80186302858917  L 14.3509333353215 1.0358185854702  C 14.710894396746 0.606833697323566  15.3307804999804 0.552600690613303  15.7597653881271 0.91256175203776  L 16.5258098312461 1.5553493617243  C 16.9547947193927 1.91531042314875  17.0090277261029 2.53519652638319  16.6490666646785 2.96418141452982  Z M 3 18  C 1.31999999999999 18  0 16.68  0 15  L 0 4  C 0 2.31999999999999  1.31999999999999 1  3 1  L 11 0.999998515758804  L 10.9999990534721 3  L 3 3  C 2.44 3  2 3.44  2 4  L 2 15  C 2 15.56  2.44 16  3 16  L 14 16  C 14.56 16  15 15.56  15 15  L 14.9999952720947 7  L 17 7.00001618430254  L 17 15  C 17 16.68  15.68 18  14 18  L 3 18  Z M 7.4583890917321 8.98301857950557  L 13.243477578911 2.08861859143477  L 15.5416109082679 4.0169814204944  L 9.75652242108904 10.9113814085652  L 7.4583890917321 8.98301857950557  Z " fill-rule="nonzero" fill="#2ef2f8" stroke="none" transform="matrix(1 0 0 1 445 78 )" />
  </g>
</svg>