<?xml version="1.0" encoding="utf-8"?>
<svg version="1.1" xmlns:xlink="http://www.w3.org/1999/xlink" width="479px" height="61px" xmlns="http://www.w3.org/2000/svg">
  <g transform="matrix(1 0 0 1 -60 -49 )">
    <path d="M 0.666666666666657 50.2325581395348  C 0.666666666666657 50.2325581395348  23.1472868217055 7.20930232558123  52.2170542635659 18.8372093023255  C 81.2868217054263 30.4651162790698  87.2601424467792 17.6744186046511  110.903553299492 9.14728682170539  C 134.546964152206 0.620155038759663  155.235194585448 15.6072351421188  177.401015228426 18.8372093023255  C 197.197969543147 23.0995946956282  202.683351040806 9.14374532719478  236.791878172589 31.6243654822335  C 270.900405304372 54.1049856372723  278.961240310078 57.1937984496124  301.054263565891 57.5968992248062  C 323.147286821705 58  336.713178294574 56.4341085271317  376.635658914729 34.3410852713178  C 416.558139534884 12.2480620155038  427.023255813954 -4.80620155038764  453.37984496124 2.17054263565888  C 479.736434108527 9.14728682170539  474.697674418605 9.14728682170539  474.697674418605 9.14728682170539  " stroke-width="2" stroke="#116cfa" fill="none" transform="matrix(1 0 0 1 61 50 )" />
  </g>
</svg>