<?xml version="1.0" encoding="utf-8"?>
<svg version="1.1" xmlns:xlink="http://www.w3.org/1999/xlink" width="68px" height="95px" xmlns="http://www.w3.org/2000/svg">
  <defs>
    <linearGradient gradientUnits="userSpaceOnUse" x1="34" y1="0" x2="34" y2="94.05" id="LinearGradient424">
      <stop id="Stop425" stop-color="#fce66f" offset="0" />
      <stop id="Stop426" stop-color="#fca001" offset="1" />
    </linearGradient>
  </defs>
  <g transform="matrix(1 0 0 1 -288 -415 )">
    <path d="M 60.7761752770513 94.7770543991406  L 46.7244788514943 87.7776163537411  C 50.1611757295699 81.0425670944125  52.0851063829787 73.3903378522427  52.0851063829787 65.2238805970149  C 52.0851063829787 37.4328358208955  29.8042553191489 15.5970149253731  1.4468085106383 15.5970149253731  C 1.13858606300038 15.5970149253731  0.83108149993892 15.5995945932815  0.524315732885706 15.6047355083782  L 0.234402009180282 0.0108235920480445  C 0.638495592006398 0.00360801369925296  1.04264785927883 0  1.4468085106383 0  C 38.2031212227813 0  68 29.2017260184989  68 65.2238805970149  C 68 75.4949487172446  65.5248820733277 85.6208298222122  60.7761752770513 94.7770543991406  Z " fill-rule="nonzero" fill="url(#LinearGradient424)" stroke="none" transform="matrix(1 0 0 1 288 415 )" />
  </g>
</svg>