<?xml version="1.0" encoding="utf-8"?>
<svg version="1.1" xmlns:xlink="http://www.w3.org/1999/xlink" width="790px" height="75px" xmlns="http://www.w3.org/2000/svg">
  <defs>
    <linearGradient gradientUnits="userSpaceOnUse" x1="395" y1="0" x2="395" y2="74.25" id="LinearGradient460">
      <stop id="Stop461" stop-color="#ffe775" stop-opacity="0.4" offset="0" />
      <stop id="Stop462" stop-color="#ffe775" stop-opacity="0.498039215686275" offset="0" />
      <stop id="Stop463" stop-color="#9fcffb" stop-opacity="0.00784313725490196" offset="1" />
      <stop id="Stop464" stop-color="#ffe775" stop-opacity="0.0980392156862745" offset="1" />
    </linearGradient>
  </defs>
  <g transform="matrix(1 0 0 1 -1 -129 )">
    <path d="M 1 74  L 1 38.1160714285713  C 1 38.1160714285713  13.6047802934251 60.4962029421871  33.7218934911243 63.4260355029587  C 66.8816272575071 68.2553798895268  97.0355029585799 40.8994082840237  97.0355029585799 40.8994082840237  C 97.0355029585799 40.8994082840237  114.968321405182 30.4425961048019  138.704280155642 28.5447470817121  C 149.762977886768 27.6605300628712  173.578190929766 36.3816082164118  195.495480020705 41.5707592171141  C 219.610570263624 47.2802629858898  216.47495553256 50.8686407188782  242.400778210117 49.3618677042803  C 275.331528596501 47.4479779639319  300.431906614786 32.6303501945526  300.431906614786 32.6303501945526  C 300.431906614786 32.6303501945526  320.759175681451 23.8745464686588  347.653696498055 20.1789883268483  C 366.412600015856 17.6013399240609  385.769392625107 25.0383669688727  404.879515143268 28.5609333198209  C 429.008210792352 33.0085725908385  450.961089494163 34.1867704280156  450.961089494163 34.1867704280156  L 555.824902723735 9.08949416342421  C 555.824902723735 9.08949416342421  573.272120789417 9.42852655965459  596.68093385214 14.9260700389105  C 614.854309331759 19.1940746402692  635.557857428372 29.020446309307  661.272373540856 28.5609333198209  C 733.622552425319 27.2680508543829  790 0  790 0  L 788.805369127517 74  L 1 74  Z " fill-rule="nonzero" fill="url(#LinearGradient460)" stroke="none" transform="matrix(1 0 0 1 1 129 )" />
  </g>
</svg>