<?xml version="1.0" encoding="utf-8"?>
<svg version="1.1" xmlns:xlink="http://www.w3.org/1999/xlink" width="67px" height="94px" xmlns="http://www.w3.org/2000/svg">
  <defs>
    <linearGradient gradientUnits="userSpaceOnUse" x1="33.5" y1="0.9306" x2="33.5" y2="93.06" id="LinearGradient427">
      <stop id="Stop428" stop-color="#eccf33" offset="0" />
      <stop id="Stop429" stop-color="#eaa215" offset="1" />
    </linearGradient>
  </defs>
  <g transform="matrix(1 0 0 1 -608 -416 )">
    <path d="M 59.8824079935653 93.7794011949391  L 46.0373541625018 86.8536414447544  C 49.4235113806057 80.1894874407871  51.3191489361702 72.6178079801139  51.3191489361702 64.5373134328358  C 51.3191489361702 37.0388059701492  29.3659574468085 15.4328358208955  1.42553191489362 15.4328358208955  C 1.1218421503092 15.4328358208955  0.818859713175113 15.4353883344049  0.516605207402092 15.4404751346058  L 0.230954920809984 0.0107096595001703  C 0.62910595094748 0.00357003460768188  1.02731480252473 0  1.42553191489362 0  C 37.6413106165639 0  67 28.8943394288305  67 64.5373134328358  C 67 74.7002650465367  64.561280866367 84.7195579293468  59.8824079935653 93.7794011949391  Z " fill-rule="nonzero" fill="url(#LinearGradient427)" stroke="none" transform="matrix(1 0 0 1 608 416 )" />
  </g>
</svg>