<?xml version="1.0" encoding="utf-8"?>
<svg version="1.1" xmlns:xlink="http://www.w3.org/1999/xlink" width="124px" height="129px" xmlns="http://www.w3.org/2000/svg">
  <defs>
    <linearGradient gradientUnits="userSpaceOnUse" x1="62" y1="32.25" x2="62" y2="125.13" id="LinearGradient430">
      <stop id="Stop431" stop-color="#00ddff" offset="0" />
      <stop id="Stop432" stop-color="#006aff" offset="1" />
    </linearGradient>
  </defs>
  <g transform="matrix(1 0 0 1 -545 -416 )">
    <path d="M 65.4357165859659 0.00292730997389126  L 65.2880468047806 15.4259985998651  C 65.1316178624081 15.4246091871558  64.9749952372664 15.4239130434783  64.8181818181818 15.4239130434783  C 37.2 15.4239130434783  15.5 37.0173913043478  15.5 64.5  C 15.5 91.9826086956522  37.2 113.576086956522  64.8181818181818 113.576086956522  C 84.787289155794 113.576086956522  101.662431201528 102.287236035315  109.478095452807 85.6457625028899  L 123.34837578243 92.2131207852694  C 112.603425348411 114.684239031446  89.8261666050341 129  64.8181818181818 129  C 29.0200884882404 129  0 100.122366364086  0 64.5  C 0 28.8776336359137  29.0200884882404 0  64.8181818181818 0  C 65.0240302441681 0  65.2298775023386 0.000975781062710785  65.4357165859659 0.00292730997389126  Z " fill-rule="nonzero" fill="url(#LinearGradient430)" stroke="none" transform="matrix(1 0 0 1 545 416 )" />
  </g>
</svg>