<?xml version="1.0" encoding="utf-8"?>
<svg version="1.1" xmlns:xlink="http://www.w3.org/1999/xlink" width="130px" height="130px" xmlns="http://www.w3.org/2000/svg">
  <defs>
    <linearGradient gradientUnits="userSpaceOnUse" x1="65" y1="32.5" x2="65" y2="126.1" id="LinearGradient433">
      <stop id="Stop434" stop-color="#00ddff" offset="0" />
      <stop id="Stop435" stop-color="#006aff" offset="1" />
    </linearGradient>
  </defs>
  <g transform="matrix(1 0 0 1 -543 -240 )">
    <path d="M 130 65  C 130 101.4  101.4 130  65 130  C 28.6 130  0 101.4  0 65  C 0 28.6  28.6 0  65 0  C 101.4 0  130 28.6  130 65  Z M 15.5434782608696 65  C 15.5434782608696 92.6956521739131  37.3043478260869 114.45652173913  65 114.45652173913  C 92.6956521739131 114.45652173913  114.45652173913 92.6956521739131  114.45652173913 65  C 114.45652173913 37.3043478260869  92.6956521739131 15.5434782608696  65 15.5434782608696  C 37.3043478260869 15.5434782608696  15.5434782608696 37.3043478260869  15.5434782608696 65  Z " fill-rule="nonzero" fill="url(#LinearGradient433)" stroke="none" transform="matrix(1 0 0 1 543 240 )" />
  </g>
</svg>