<?xml version="1.0" encoding="utf-8"?>
<svg version="1.1" xmlns:xlink="http://www.w3.org/1999/xlink" width="163px" height="170px" xmlns="http://www.w3.org/2000/svg">
  <defs>
    <linearGradient gradientUnits="userSpaceOnUse" x1="81.5" y1="42.5" x2="81.5" y2="164.9" id="LinearGradient444">
      <stop id="Stop445" stop-color="#00ddff" offset="0" />
      <stop id="Stop446" stop-color="#006aff" offset="1" />
    </linearGradient>
  </defs>
  <g transform="matrix(1 0 0 1 -1396 -219 )">
    <path d="M 86.0163048670358 0.00385769531443034  L 85.8221905578971 20.3288353641633  C 85.616562190101 20.3270043551665  85.4106792231808 20.3260869565217  85.2045454545455 20.3260869565217  C 48.9 20.3260869565217  20.375 48.7826086956521  20.375 85  C 20.375 121.217391304348  48.9 149.673913043478  85.2045454545455 149.673913043478  C 111.454259132213 149.673913043478  133.636905531041 134.797132759717  143.910722248448 112.866508724739  L 162.143429455936 121.521166926324  C 148.019018804766 151.134268491053  118.077944811456 170  85.2045454545455 170  C 38.1473743837354 170  0 131.944203735617  0 85  C 0 38.0557962643825  38.1473743837354 0  85.2045454545455 0  C 85.4751365306403 0  85.7457260716225 0.00128591302837855  86.0163048670358 0.00385769531443034  Z " fill-rule="nonzero" fill="url(#LinearGradient444)" stroke="none" transform="matrix(1 0 0 1 1396 219 )" />
  </g>
</svg>