<?xml version="1.0" encoding="utf-8"?>
<svg version="1.1" xmlns:xlink="http://www.w3.org/1999/xlink" width="240px" height="106px" xmlns="http://www.w3.org/2000/svg">
  <g transform="matrix(1 0 0 1 -79 -261 )">
    <path d="M 80 263  A 1 1 0 0 1 81 262 L 317 262  A 1 1 0 0 1 318 263 L 318 365  A 1 1 0 0 1 317 366 L 81 366  A 1 1 0 0 1 80 365 L 80 263  Z " fill-rule="nonzero" fill="#00ccff" stroke="none" fill-opacity="0.109803921568627" />
    <path d="M 79.5 263  A 1.5 1.5 0 0 1 81 261.5 L 317 261.5  A 1.5 1.5 0 0 1 318.5 263 L 318.5 365  A 1.5 1.5 0 0 1 317 366.5 L 81 366.5  A 1.5 1.5 0 0 1 79.5 365 L 79.5 263  Z " stroke-width="1" stroke="#0792b8" fill="none" stroke-opacity="0.498039215686275" />
  </g>
</svg>