<?xml version="1.0" encoding="utf-8"?>
<svg version="1.1" xmlns:xlink="http://www.w3.org/1999/xlink" width="180px" height="80px" xmlns="http://www.w3.org/2000/svg">
  <g transform="matrix(1 0 0 1 0 -121 )">
    <path d="M 1 123  A 1 1 0 0 1 2 122 L 178 122  A 1 1 0 0 1 179 123 L 179 199  A 1 1 0 0 1 178 200 L 2 200  A 1 1 0 0 1 1 199 L 1 123  Z " fill-rule="nonzero" fill="#00ccff" stroke="none" fill-opacity="0.109803921568627" />
    <path d="M 0.5 123  A 1.5 1.5 0 0 1 2 121.5 L 178 121.5  A 1.5 1.5 0 0 1 179.5 123 L 179.5 199  A 1.5 1.5 0 0 1 178 200.5 L 2 200.5  A 1.5 1.5 0 0 1 0.5 199 L 0.5 123  Z " stroke-width="1" stroke="#0792b8" fill="none" stroke-opacity="0.498039215686275" />
  </g>
</svg>