<?xml version="1.0" encoding="utf-8"?>
<svg version="1.1" xmlns:xlink="http://www.w3.org/1999/xlink" width="180px" height="80px" xmlns="http://www.w3.org/2000/svg">
  <g transform="matrix(1 0 0 1 0 -481 )">
    <path d="M 0.5 483  A 1.5 1.5 0 0 1 2 481.5 L 178 481.5  A 1.5 1.5 0 0 1 179.5 483 L 179.5 559  A 1.5 1.5 0 0 1 178 560.5 L 2 560.5  A 1.5 1.5 0 0 1 0.5 559 L 0.5 483  Z " fill-rule="nonzero" fill="#ffffff" stroke="none" fill-opacity="0" />
    <path d="M 0.5 483  A 1.5 1.5 0 0 1 2 481.5 L 178 481.5  A 1.5 1.5 0 0 1 179.5 483 L 179.5 559  A 1.5 1.5 0 0 1 178 560.5 L 2 560.5  A 1.5 1.5 0 0 1 0.5 559 L 0.5 483  Z " stroke-width="1" stroke="#00ffff" fill="none" />
  </g>
</svg>